<?xml version="1.0" encoding="UTF-8" standalone="no"?>
<!-- Created with Inkscape (http://www.inkscape.org/) -->

<svg
   width="111.59211mm"
   height="165.92642mm"
   viewBox="0 0 111.59211 165.92642"
   version="1.1"
   id="svg1"
   inkscape:version="1.3 (0e150ed, 2023-07-21)"
   sodipodi:docname="off-bulb.svg"
   xmlns:inkscape="http://www.inkscape.org/namespaces/inkscape"
   xmlns:sodipodi="http://sodipodi.sourceforge.net/DTD/sodipodi-0.dtd"
   xmlns="http://www.w3.org/2000/svg"
   xmlns:svg="http://www.w3.org/2000/svg">
  <sodipodi:namedview
     id="namedview1"
     pagecolor="#ffffff"
     bordercolor="#000000"
     borderopacity="0.25"
     inkscape:showpageshadow="2"
     inkscape:pageopacity="0.0"
     inkscape:pagecheckerboard="0"
     inkscape:deskcolor="#d1d1d1"
     inkscape:document-units="mm"
     inkscape:zoom="0.53924603"
     inkscape:cx="178.02634"
     inkscape:cy="408.90426"
     inkscape:window-width="2560"
     inkscape:window-height="1412"
     inkscape:window-x="0"
     inkscape:window-y="28"
     inkscape:window-maximized="0"
     inkscape:current-layer="layer1" />
  <defs
     id="defs1" />
  <g
     inkscape:label="Layer 1"
     inkscape:groupmode="layer"
     id="layer1"
     transform="translate(-57.94375,-40.216668)">
    <path
       id="path208"
       style="font-variation-settings:'wght' 600;fill:#28282b;fill-opacity:1;stroke:none;stroke-width:0.263673;stroke-linecap:round;stroke-linejoin:round;stroke-miterlimit:30"
       d="m 113.73983,40.217098 a 55.796329,55.796329 0 0 0 -7.9406,0.567924 55.796329,55.796329 0 0 0 -7.77886,1.692403 55.796329,55.796329 0 0 0 -7.45897,2.781742 55.796329,55.796329 0 0 0 -6.98717,3.815788 55.796329,55.796329 0 0 0 -6.37326,4.770768 55.796329,55.796329 0 0 0 -5.62911,5.629114 55.796329,55.796329 0 0 0 -4.77077,6.373254 55.796329,55.796329 0 0 0 -3.81527,6.987171 55.796329,55.796329 0 0 0 -2.78174,7.458976 55.796329,55.796329 0 0 0 -1.69241,7.778854 55.796329,55.796329 0 0 0 -0.56792,7.9406 55.796329,55.796329 0 0 0 0.56792,7.940608 55.796329,55.796329 0 0 0 1.69241,7.77885 55.796329,55.796329 0 0 0 2.78174,7.45898 55.796329,55.796329 0 0 0 3.81527,6.98717 55.796329,55.796329 0 0 0 4.77077,6.37273 55.796329,55.796329 0 0 0 0.67179,0.6718 c 0.0473,0.0816 0.10332,0.15969 0.16847,0.23306 l 18.11724,20.40237 h 35.48569 l 16.214,-31.56448 c 1.04029,-2.40764 1.807,-5.47248 2.20348,-9.42527 0.66698,-6.12272 -1.69383,-9.17142 -5.19348,-11.0634 -4.26187,-2.225308 -7.59414,-1.43933 -10.50789,0.70073 -5.20346,5.16653 -3.30168,8.37158 -1.85983,10.21798 3.23515,3.16866 6.9144,0.77025 7.82639,-0.31419 2.01364,-2.13842 2.59215,-4.71386 1.6428,-7.75405 -1.44967,-1.8112 -3.0979,-0.0899 -2.51251,1.15962 1.19962,3.33355 -1.64546,5.96312 -3.64732,5.70042 -3.0057,-1.17171 -2.82372,-3.51409 0.48317,-7.00474 3.60965,-2.23059 5.05215,-1.02391 6.88433,-0.43511 3.75314,1.56804 4.16561,4.63934 4.10621,7.92303 0.062,3.19743 -0.86266,6.12111 -1.94561,9.00048 l -15.42387,30.02504 H 103.54458 L 88.12072,121.00028 c -1.27288,-3.33217 -2.5409,-6.70433 -2.16679,-10.36112 0.0394,-4.47649 2.5215,-6.64603 3.13417,-7.07037 2.55381,-2.31127 5.86827,-1.45525 6.43579,-3.13521 -0.16428,-1.065398 -0.75651,-1.415488 -1.56167,-1.520318 -2.96465,0.26283 -5.60857,1.201808 -7.76748,3.356898 -2.05011,2.39019 -3.31989,5.19787 -3.21376,8.39949 -0.035,4.05606 0.9685,7.92295 2.61896,11.62513 l 14.75879,28.73054 h -8.55555 l -6.1712,-6.94944 -9.39064,-10.57455 0.12713,-0.15038 a 52.962399,52.962399 0 0 1 -2.65462,-2.65462 52.962399,52.962399 0 0 1 -4.52841,-6.04924 52.962399,52.962399 0 0 1 -3.62148,-6.63215 52.962399,52.962399 0 0 1 -2.64067,-7.08019 52.962399,52.962399 0 0 1 -1.60662,-7.38353 52.962399,52.962399 0 0 1 -0.53898,-7.537528 52.962399,52.962399 0 0 1 0.53898,-7.53752 52.962399,52.962399 0 0 1 1.60611,-7.383533 52.962399,52.962399 0 0 1 2.64066,-7.080188 52.962399,52.962399 0 0 1 3.62149,-6.63267 52.962399,52.962399 0 0 1 4.52892,-6.049243 52.962399,52.962399 0 0 1 5.34282,-5.343343 52.962399,52.962399 0 0 1 6.04976,-4.528406 52.962399,52.962399 0 0 1 6.63216,-3.621485 52.962399,52.962399 0 0 1 7.08019,-2.640665 52.962399,52.962399 0 0 1 7.38352,-1.606621 52.962399,52.962399 0 0 1 7.53753,-0.538985 52.962399,52.962399 0 0 1 2.68252,0.06821 52.962399,52.962399 0 0 1 2.67581,0.203605 52.962399,52.962399 0 0 1 2.66185,0.338998 52.962399,52.962399 0 0 1 2.64118,0.473356 52.962399,52.962399 0 0 1 2.6138,0.606681 52.962399,52.962399 0 0 1 2.57968,0.73794 52.962399,52.962399 0 0 1 2.53938,0.868164 52.962399,52.962399 0 0 1 2.49184,0.995288 52.962399,52.962399 0 0 1 2.43861,1.120345 52.962399,52.962399 0 0 1 2.37815,1.242301 52.962399,52.962399 0 0 1 2.31252,1.361157 52.962399,52.962399 0 0 1 2.24069,1.476913 52.962399,52.962399 0 0 1 2.16266,1.588017 52.962399,52.962399 0 0 1 2.07998,1.695503 52.962399,52.962399 0 0 1 1.99109,1.799374 52.962399,52.962399 0 0 1 1.89704,1.897042 52.962399,52.962399 0 0 1 1.79938,1.991093 52.962399,52.962399 0 0 1 1.6955,2.079976 52.962399,52.962399 0 0 1 1.58802,2.162659 52.962399,52.962399 0 0 1 1.47691,2.24069 52.962399,52.962399 0 0 1 1.36116,2.31252 52.962399,52.962399 0 0 1 1.2423,2.378149 52.962399,52.962399 0 0 1 1.12034,2.438611 52.962399,52.962399 0 0 1 0.99529,2.491838 52.962399,52.962399 0 0 1 0.86816,2.53938 52.962399,52.962399 0 0 1 0.73794,2.579687 52.962399,52.962399 0 0 1 0.60669,2.613794 52.962399,52.962399 0 0 1 0.47335,2.641188 52.962399,52.962399 0 0 1 0.339,2.66186 52.962399,52.962399 0 0 1 0.2036,2.6758 52.962399,52.962399 0 0 1 0.0682,2.68252 52.962399,52.962399 0 0 1 -0.53898,7.537528 52.962399,52.962399 0 0 1 -1.60662,7.38353 52.962399,52.962399 0 0 1 -2.64067,7.08019 52.962399,52.962399 0 0 1 -3.62148,6.63215 52.962399,52.962399 0 0 1 -4.52841,6.04976 52.962399,52.962399 0 0 1 -1.55442,1.55391 l 0.0971,0.0749 -10.40919,11.72177 -6.43836,7.2502 -5.55574,6.19342 h -16.32872 c -0.0981,0 -0.19388,0.01 -0.28628,0.0284 -0.0924,0.0188 -0.18132,0.0469 -0.26614,0.0827 -0.0848,0.0358 -0.16545,0.0794 -0.24081,0.13023 -0.0754,0.0508 -0.14578,0.10857 -0.20981,0.1726 -0.064,0.064 -0.12177,0.13445 -0.1726,0.2098 -0.0508,0.0754 -0.0945,0.15601 -0.13022,0.24082 -0.0358,0.0848 -0.0634,0.17372 -0.0822,0.26613 -0.0188,0.0924 -0.0289,0.18816 -0.0289,0.28629 0,0.0981 0.0101,0.19389 0.0289,0.28628 0.0188,0.0924 0.0464,0.18131 0.0822,0.26614 0.0358,0.0848 0.0794,0.16544 0.13022,0.24081 0.0508,0.0754 0.10858,0.14526 0.1726,0.20929 0.064,0.064 0.13445,0.1223 0.20981,0.17312 0.0754,0.0508 0.156,0.0945 0.24081,0.13022 0.0848,0.0358 0.17373,0.0633 0.26614,0.0822 0.0924,0.0188 0.18816,0.0289 0.28628,0.0289 h 20.00085 4.69842 a 2.3353636,2.2814925 6.27e-4 0 1 0.0693,5.2e-4 2.3353636,2.2814925 6.27e-4 0 1 0.3297,0.045 2.3353636,2.2814925 6.27e-4 0 1 0.38912,0.11627 2.3353636,2.2814925 6.27e-4 0 1 0.36277,0.18087 2.3353636,2.2814925 6.27e-4 0 1 0.32504,0.23978 2.3353636,2.2814925 6.27e-4 0 1 0.27751,0.29094 2.3353636,2.2814925 6.27e-4 0 1 0.22169,0.33383 2.3353636,2.2814925 6.27e-4 0 1 0.15865,0.36587 2.3353636,2.2814925 6.27e-4 0 1 0.0915,0.38757 2.3353636,2.2814925 6.27e-4 0 1 0.003,0.0207 2.3353636,2.2814925 6.27e-4 0 1 0.003,0.0212 2.3353636,2.2814925 6.27e-4 0 1 0.003,0.0207 2.3353636,2.2814925 6.27e-4 0 1 0.002,0.0207 2.3353636,2.2814925 6.27e-4 0 1 0.002,0.0212 2.3353636,2.2814925 6.27e-4 0 1 0.002,0.0207 2.3353636,2.2814925 6.27e-4 0 1 0.002,0.0207 2.3353636,2.2814925 6.27e-4 0 1 0.002,0.0212 2.3353636,2.2814925 6.27e-4 0 1 0.002,0.0212 2.3353636,2.2814925 6.27e-4 0 1 0.001,0.0212 2.3353636,2.2814925 6.27e-4 0 1 0.001,0.0217 2.3353636,2.2814925 6.27e-4 0 1 5.1e-4,0.0207 2.3353636,2.2814925 6.27e-4 0 1 5.2e-4,0.0212 2.3353636,2.2814925 6.27e-4 0 1 5.2e-4,0.0207 2.3353636,2.2814925 6.27e-4 0 1 0,5.2e-4 2.3353636,2.2814925 6.27e-4 0 1 0,5.1e-4 2.3353636,2.2814925 6.27e-4 0 1 0,5.2e-4 2.3353636,2.2814925 6.27e-4 0 1 0,5.2e-4 2.3353636,2.2814925 6.27e-4 0 1 0,5.1e-4 2.3353636,2.2814925 6.27e-4 0 1 0,5.2e-4 2.3353636,2.2814925 6.27e-4 0 1 0,5.2e-4 2.3353636,2.2814925 6.27e-4 0 1 0,5.2e-4 2.3353636,2.2814925 6.27e-4 0 1 0,5.1e-4 2.3353636,2.2814925 6.27e-4 0 1 0,5.2e-4 2.3353636,2.2814925 6.27e-4 0 1 0,5.2e-4 2.3353636,2.2814925 6.27e-4 0 1 0,5.1e-4 2.3353636,2.2814925 6.27e-4 0 1 0,5.2e-4 2.3353636,2.2814925 6.27e-4 0 1 0,5.2e-4 2.3353636,2.2814925 6.27e-4 0 1 0,5.1e-4 2.3353636,2.2814925 6.27e-4 0 1 0,5.2e-4 2.3353636,2.2814925 6.27e-4 0 1 0,5.2e-4 2.3353636,2.2814925 6.27e-4 0 1 0,5.1e-4 2.3353636,2.2814925 6.27e-4 0 1 0,5.2e-4 2.3353636,2.2814925 6.27e-4 0 1 0,5.2e-4 2.3353636,2.2814925 6.27e-4 0 1 0,5.1e-4 2.3353636,2.2814925 6.27e-4 0 1 0,5.2e-4 2.3353636,2.2814925 6.27e-4 0 1 0,5.2e-4 2.3353636,2.2814925 6.27e-4 0 1 0,5.1e-4 2.3353636,2.2814925 6.27e-4 0 1 0,5.2e-4 2.3353636,2.2814925 6.27e-4 0 1 0,5.2e-4 2.3353636,2.2814925 6.27e-4 0 1 0,5.1e-4 2.3353636,2.2814925 6.27e-4 0 1 0,5.2e-4 2.3353636,2.2814925 6.27e-4 0 1 0,5.2e-4 2.3353636,2.2814925 6.27e-4 0 1 0,5.1e-4 2.3353636,2.2814925 6.27e-4 0 1 0,5.2e-4 2.3353636,2.2814925 6.27e-4 0 1 0,5.2e-4 2.3353636,2.2814925 6.27e-4 0 1 0,5.1e-4 2.3353636,2.2814925 6.27e-4 0 1 0,5.2e-4 2.3353636,2.2814925 6.27e-4 0 1 0,5.2e-4 2.3353636,2.2814925 6.27e-4 0 1 0,5.1e-4 2.3353636,2.2814925 6.27e-4 0 1 0,5.2e-4 2.3353636,2.2814925 6.27e-4 0 1 0,5.2e-4 2.3353636,2.2814925 6.27e-4 0 1 0,5.1e-4 2.3353636,2.2814925 6.27e-4 0 1 0,5.2e-4 2.3353636,2.2814925 6.27e-4 0 1 0,5.2e-4 2.3353636,2.2814925 6.27e-4 0 1 0,5.2e-4 2.3353636,2.2814925 6.27e-4 0 1 0,5.1e-4 2.3353636,2.2814925 6.27e-4 0 1 0,5.2e-4 2.3353636,2.2814925 6.27e-4 0 1 0,5.2e-4 2.3353636,2.2814925 6.27e-4 0 1 0,5.1e-4 2.3353636,2.2814925 6.27e-4 0 1 0,5.2e-4 2.3353636,2.2814925 6.27e-4 0 1 0,5.2e-4 2.3353636,2.2814925 6.27e-4 0 1 0,5.1e-4 2.3353636,2.2814925 6.27e-4 0 1 0,5.2e-4 2.3353636,2.2814925 6.27e-4 0 1 0,5.2e-4 2.3353636,2.2814925 6.27e-4 0 1 0,5.1e-4 2.3353636,2.2814925 6.27e-4 0 1 0,5.2e-4 2.3353636,2.2814925 6.27e-4 0 1 0,5.2e-4 2.3353636,2.2814925 6.27e-4 0 1 0,5.1e-4 2.3353636,2.2814925 6.27e-4 0 1 0,5.2e-4 2.3353636,2.2814925 6.27e-4 0 1 0,5.2e-4 2.3353636,2.2814925 6.27e-4 0 1 0,5.1e-4 2.3353636,2.2814925 6.27e-4 0 1 0,5.2e-4 2.3353636,2.2814925 6.27e-4 0 1 0,5.2e-4 2.3353636,2.2814925 6.27e-4 0 1 0,5.1e-4 2.3353636,2.2814925 6.27e-4 0 1 0,5.2e-4 2.3353636,2.2814925 6.27e-4 0 1 0,5.2e-4 2.3353636,2.2814925 6.27e-4 0 1 0,5.1e-4 2.3353636,2.2814925 6.27e-4 0 1 0,5.2e-4 2.3353636,2.2814925 6.27e-4 0 1 0,5.2e-4 2.3353636,2.2814925 6.27e-4 0 1 0,5.1e-4 2.3353636,2.2814925 6.27e-4 0 1 0,5.2e-4 2.3353636,2.2814925 6.27e-4 0 1 0,5.2e-4 2.3353636,2.2814925 6.27e-4 0 1 0,5.1e-4 2.3353636,2.2814925 6.27e-4 0 1 0,5.2e-4 2.3353636,2.2814925 6.27e-4 0 1 0,5.2e-4 2.3353636,2.2814925 6.27e-4 0 1 0,5.1e-4 2.3353636,2.2814925 6.27e-4 0 1 0,5.2e-4 2.3353636,2.2814925 6.27e-4 0 1 0,5.2e-4 2.3353636,2.2814925 6.27e-4 0 1 0,5.1e-4 2.3353636,2.2814925 6.27e-4 0 1 0,5.2e-4 2.3353636,2.2814925 6.27e-4 0 1 0,5.2e-4 2.3353636,2.2814925 6.27e-4 0 1 0,5.2e-4 2.3353636,2.2814925 6.27e-4 0 1 -5.2e-4,0.0212 2.3353636,2.2814925 6.27e-4 0 1 -5.2e-4,0.0212 2.3353636,2.2814925 6.27e-4 0 1 -5.1e-4,0.0207 2.3353636,2.2814925 6.27e-4 0 1 -0.0501,0.39481 2.3353636,2.2814925 6.27e-4 0 1 -0.0832,0.2868 2.3353636,2.2814925 6.27e-4 0 1 -0.12041,0.2744 2.3353636,2.2814925 6.27e-4 0 1 -0.15658,0.25632 2.3353636,2.2814925 6.27e-4 0 1 -0.18914,0.23409 2.3353636,2.2814925 6.27e-4 0 1 -0.2191,0.20826 2.3353636,2.2814925 6.27e-4 0 1 -0.24443,0.17828 2.3353636,2.2814925 6.27e-4 0 1 -0.26717,0.14573 2.3353636,2.2814925 6.27e-4 0 1 -0.2837,0.11059 2.3353636,2.2814925 6.27e-4 0 1 -0.26614,0.0599 2.3353636,2.2814925 6.27e-4 0 1 -0.27078,0.0295 2.3353636,2.2814925 6.27e-4 0 1 -0.12454,-5.2e-4 v 5.2e-4 a 2.3353636,2.2814925 6.27e-4 0 1 -0.14831,-0.001 2.3353636,2.2814925 6.27e-4 0 1 -0.1695,-0.0171 l -0.10336,-0.016 -0.2036,-0.032 -4.29741,-0.67437 -42.08013,-6.6027 a 5.1503825,5.1503763 12.034796 0 0 -0.005,-0.001 l -0.004,-5.1e-4 a 5.1503825,5.1503763 12.034796 0 0 -0.0786,-0.0217 5.1503825,5.1503763 12.034796 0 0 -0.53847,-0.0749 5.1503825,5.1503763 12.034796 0 0 -0.18965,-0.0264 5.1503825,5.1503763 12.034796 0 0 -1.46141,0.11059 5.1503825,5.1503763 12.034796 0 0 -1.37149,0.51831 5.1503825,5.1503763 12.034796 0 0 -1.16996,0.88315 5.1503825,5.1503763 12.034796 0 0 -0.50177,0.67541 5.1503825,5.1503763 12.034796 0 0 0,5.2e-4 5.1503825,5.1503763 12.034796 0 0 -0.37156,0.50074 5.1503825,5.1503763 12.034796 0 0 -0.30282,0.66973 5.1503825,5.1503763 12.034796 0 0 -0.20412,0.7059 5.1503825,5.1503763 12.034796 0 0 -0.10594,0.8015 5.1503825,5.1503763 12.034796 0 0 0.0212,0.8077 5.1503825,5.1503763 12.034796 0 0 0.11007,0.51677 5.1503825,5.1503763 12.034796 0 0 0.16226,0.50281 5.1503825,5.1503763 12.034796 0 0 0.14366,0.53692 5.1503825,5.1503763 12.034796 0 0 0.87695,1.35237 5.1503825,5.1503763 12.034796 0 0 1.2516,1.01441 5.1503825,5.1503763 12.034796 0 0 1.50379,0.57826 5.1503825,5.1503763 12.034796 0 0 1.10897,0.1111 l 9.86917,1.61954 34.02015,5.33818 4.31136,0.67644 0.39636,0.062 a 2.3353636,2.2814925 6.27e-4 0 1 5.2e-4,0 2.3353636,2.2814925 6.27e-4 0 1 0.32763,0.0982 2.3353636,2.2814925 6.27e-4 0 1 0.36277,0.18087 2.3353636,2.2814925 6.27e-4 0 1 0.32504,0.23977 2.3353636,2.2814925 6.27e-4 0 1 0.2775,0.29094 2.3353636,2.2814925 6.27e-4 0 1 0.22118,0.33383 2.3353636,2.2814925 6.27e-4 0 1 0.15916,0.36587 2.3353636,2.2814925 6.27e-4 0 1 0.0915,0.38809 2.3353636,2.2814925 6.27e-4 0 1 0.004,0.0284 2.3353636,2.2814925 6.27e-4 0 1 0.004,0.0279 2.3353636,2.2814925 6.27e-4 0 1 0.003,0.0284 2.3353636,2.2814925 6.27e-4 0 1 0.003,0.0284 2.3353636,2.2814925 6.27e-4 0 1 0.003,0.0279 2.3353636,2.2814925 6.27e-4 0 1 0.002,0.0284 2.3353636,2.2814925 6.27e-4 0 1 0.002,0.0284 2.3353636,2.2814925 6.27e-4 0 1 0.002,0.0284 2.3353636,2.2814925 6.27e-4 0 1 0.001,0.0284 2.3353636,2.2814925 6.27e-4 0 1 5.2e-4,0.0279 2.3353636,2.2814925 6.27e-4 0 1 0,5.2e-4 2.3353636,2.2814925 6.27e-4 0 1 0,5.1e-4 2.3353636,2.2814925 6.27e-4 0 1 0,5.2e-4 2.3353636,2.2814925 6.27e-4 0 1 0,5.2e-4 2.3353636,2.2814925 6.27e-4 0 1 0,5.2e-4 2.3353636,2.2814925 6.27e-4 0 1 0,5.1e-4 2.3353636,2.2814925 6.27e-4 0 1 0,5.2e-4 2.3353636,2.2814925 6.27e-4 0 1 0,5.2e-4 2.3353636,2.2814925 6.27e-4 0 1 0,5.1e-4 2.3353636,2.2814925 6.27e-4 0 1 0,5.2e-4 2.3353636,2.2814925 6.27e-4 0 1 0,5.2e-4 2.3353636,2.2814925 6.27e-4 0 1 0,5.1e-4 2.3353636,2.2814925 6.27e-4 0 1 0,5.2e-4 2.3353636,2.2814925 6.27e-4 0 1 0,5.2e-4 2.3353636,2.2814925 6.27e-4 0 1 0,5.1e-4 2.3353636,2.2814925 6.27e-4 0 1 0,5.2e-4 2.3353636,2.2814925 6.27e-4 0 1 0,5.2e-4 2.3353636,2.2814925 6.27e-4 0 1 0,5.1e-4 2.3353636,2.2814925 6.27e-4 0 1 0,5.2e-4 2.3353636,2.2814925 6.27e-4 0 1 0,5.2e-4 2.3353636,2.2814925 6.27e-4 0 1 0,5.1e-4 2.3353636,2.2814925 6.27e-4 0 1 0,5.2e-4 2.3353636,2.2814925 6.27e-4 0 1 0,5.2e-4 2.3353636,2.2814925 6.27e-4 0 1 0,5.1e-4 2.3353636,2.2814925 6.27e-4 0 1 0,5.2e-4 2.3353636,2.2814925 6.27e-4 0 1 0,5.2e-4 2.3353636,2.2814925 6.27e-4 0 1 0,5.1e-4 2.3353636,2.2814925 6.27e-4 0 1 0,5.2e-4 2.3353636,2.2814925 6.27e-4 0 1 0,5.2e-4 2.3353636,2.2814925 6.27e-4 0 1 0,5.1e-4 2.3353636,2.2814925 6.27e-4 0 1 0,5.2e-4 2.3353636,2.2814925 6.27e-4 0 1 0,5.2e-4 2.3353636,2.2814925 6.27e-4 0 1 0,5.1e-4 2.3353636,2.2814925 6.27e-4 0 1 0,5.2e-4 2.3353636,2.2814925 6.27e-4 0 1 0,5.2e-4 2.3353636,2.2814925 6.27e-4 0 1 0,5.1e-4 2.3353636,2.2814925 6.27e-4 0 1 0,5.2e-4 2.3353636,2.2814925 6.27e-4 0 1 0,5.2e-4 2.3353636,2.2814925 6.27e-4 0 1 0,5.2e-4 2.3353636,2.2814925 6.27e-4 0 1 0,5.1e-4 2.3353636,2.2814925 6.27e-4 0 1 0,5.2e-4 2.3353636,2.2814925 6.27e-4 0 1 0,5.2e-4 2.3353636,2.2814925 6.27e-4 0 1 0,5.1e-4 2.3353636,2.2814925 6.27e-4 0 1 0,5.2e-4 2.3353636,2.2814925 6.27e-4 0 1 0,5.2e-4 2.3353636,2.2814925 6.27e-4 0 1 0,5.1e-4 2.3353636,2.2814925 6.27e-4 0 1 0,5.2e-4 2.3353636,2.2814925 6.27e-4 0 1 0,5.2e-4 2.3353636,2.2814925 6.27e-4 0 1 0,5.1e-4 2.3353636,2.2814925 6.27e-4 0 1 0,5.2e-4 2.3353636,2.2814925 6.27e-4 0 1 0,5.2e-4 2.3353636,2.2814925 6.27e-4 0 1 0,5.1e-4 2.3353636,2.2814925 6.27e-4 0 1 0,5.2e-4 2.3353636,2.2814925 6.27e-4 0 1 0,5.2e-4 2.3353636,2.2814925 6.27e-4 0 1 0,5.1e-4 2.3353636,2.2814925 6.27e-4 0 1 0,5.2e-4 2.3353636,2.2814925 6.27e-4 0 1 0,5.2e-4 2.3353636,2.2814925 6.27e-4 0 1 0,5.1e-4 2.3353636,2.2814925 6.27e-4 0 1 0,5.2e-4 2.3353636,2.2814925 6.27e-4 0 1 0,5.2e-4 2.3353636,2.2814925 6.27e-4 0 1 0,5.1e-4 2.3353636,2.2814925 6.27e-4 0 1 0,5.2e-4 2.3353636,2.2814925 6.27e-4 0 1 0,5.2e-4 2.3353636,2.2814925 6.27e-4 0 1 0,5.1e-4 2.3353636,2.2814925 6.27e-4 0 1 0,5.2e-4 2.3353636,2.2814925 6.27e-4 0 1 0,5.2e-4 2.3353636,2.2814925 6.27e-4 0 1 0,5.1e-4 2.3353636,2.2814925 6.27e-4 0 1 0,5.2e-4 2.3353636,2.2814925 6.27e-4 0 1 0,5.2e-4 2.3353636,2.2814925 6.27e-4 0 1 0,5.1e-4 2.3353636,2.2814925 6.27e-4 0 1 0,5.2e-4 2.3353636,2.2814925 6.27e-4 0 1 0,5.2e-4 2.3353636,2.2814925 6.27e-4 0 1 0,5.2e-4 2.3353636,2.2814925 6.27e-4 0 1 0,5.1e-4 2.3353636,2.2814925 6.27e-4 0 1 0,5.2e-4 2.3353636,2.2814925 6.27e-4 0 1 0,5.2e-4 2.3353636,2.2814925 6.27e-4 0 1 0,5.1e-4 2.3353636,2.2814925 6.27e-4 0 1 0,5.2e-4 2.3353636,2.2814925 6.27e-4 0 1 0,5.2e-4 2.3353636,2.2814925 6.27e-4 0 1 0,5.1e-4 2.3353636,2.2814925 6.27e-4 0 1 0,5.2e-4 2.3353636,2.2814925 6.27e-4 0 1 0,5.2e-4 2.3353636,2.2814925 6.27e-4 0 1 0,5.1e-4 2.3353636,2.2814925 6.27e-4 0 1 0,5.2e-4 2.3353636,2.2814925 6.27e-4 0 1 0,5.2e-4 2.3353636,2.2814925 6.27e-4 0 1 0,5.1e-4 2.3353636,2.2814925 6.27e-4 0 1 0,5.2e-4 2.3353636,2.2814925 6.27e-4 0 1 0,5.2e-4 2.3353636,2.2814925 6.27e-4 0 1 0,5.1e-4 2.3353636,2.2814925 6.27e-4 0 1 0,5.2e-4 2.3353636,2.2814925 6.27e-4 0 1 0,5.2e-4 2.3353636,2.2814925 6.27e-4 0 1 0,5.1e-4 2.3353636,2.2814925 6.27e-4 0 1 0,5.2e-4 2.3353636,2.2814925 6.27e-4 0 1 0,5.2e-4 2.3353636,2.2814925 6.27e-4 0 1 0,5.1e-4 2.3353636,2.2814925 6.27e-4 0 1 0,5.2e-4 2.3353636,2.2814925 6.27e-4 0 1 0,5.2e-4 2.3353636,2.2814925 6.27e-4 0 1 0,5.1e-4 2.3353636,2.2814925 6.27e-4 0 1 0,5.2e-4 2.3353636,2.2814925 6.27e-4 0 1 0,5.2e-4 2.3353636,2.2814925 6.27e-4 0 1 0,5.1e-4 2.3353636,2.2814925 6.27e-4 0 1 0,5.2e-4 2.3353636,2.2814925 6.27e-4 0 1 0,5.2e-4 2.3353636,2.2814925 6.27e-4 0 1 0,5.1e-4 2.3353636,2.2814925 6.27e-4 0 1 0,5.2e-4 2.3353636,2.2814925 6.27e-4 0 1 0,5.2e-4 2.3353636,2.2814925 6.27e-4 0 1 0,5.2e-4 2.3353636,2.2814925 6.27e-4 0 1 0,5.1e-4 2.3353636,2.2814925 6.27e-4 0 1 0,5.2e-4 2.3353636,2.2814925 6.27e-4 0 1 0,5.2e-4 2.3353636,2.2814925 6.27e-4 0 1 0,5.1e-4 2.3353636,2.2814925 6.27e-4 0 1 0,5.2e-4 2.3353636,2.2814925 6.27e-4 0 1 0,5.2e-4 2.3353636,2.2814925 6.27e-4 0 1 0,5.1e-4 2.3353636,2.2814925 6.27e-4 0 1 0,5.2e-4 2.3353636,2.2814925 6.27e-4 0 1 0,5.2e-4 2.3353636,2.2814925 6.27e-4 0 1 0,5.1e-4 2.3353636,2.2814925 6.27e-4 0 1 0,5.2e-4 2.3353636,2.2814925 6.27e-4 0 1 0,5.2e-4 2.3353636,2.2814925 6.27e-4 0 1 0,5.1e-4 2.3353636,2.2814925 6.27e-4 0 1 0,5.2e-4 2.3353636,2.2814925 6.27e-4 0 1 0,5.2e-4 2.3353636,2.2814925 6.27e-4 0 1 0,5.1e-4 2.3353636,2.2814925 6.27e-4 0 1 0,5.2e-4 2.3353636,2.2814925 6.27e-4 0 1 0,5.2e-4 2.3353636,2.2814925 6.27e-4 0 1 0,5.1e-4 2.3353636,2.2814925 6.27e-4 0 1 0,5.2e-4 2.3353636,2.2814925 6.27e-4 0 1 0,5.2e-4 2.3353636,2.2814925 6.27e-4 0 1 0,5.1e-4 2.3353636,2.2814925 6.27e-4 0 1 0,5.2e-4 2.3353636,2.2814925 6.27e-4 0 1 0,5.2e-4 2.3353636,2.2814925 6.27e-4 0 1 0,5.1e-4 2.3353636,2.2814925 6.27e-4 0 1 0,5.2e-4 2.3353636,2.2814925 6.27e-4 0 1 0,5.2e-4 2.3353636,2.2814925 6.27e-4 0 1 0,5.1e-4 2.3353636,2.2814925 6.27e-4 0 1 -5.2e-4,0.0284 2.3353636,2.2814925 6.27e-4 0 1 -0.001,0.0284 2.3353636,2.2814925 6.27e-4 0 1 -0.0496,0.39429 2.3353636,2.2814925 6.27e-4 0 1 -0.20412,0.56121 2.3353636,2.2814925 6.27e-4 0 1 -0.34571,0.49041 2.3353636,2.2814925 6.27e-4 0 1 -0.46354,0.38653 2.3353636,2.2814925 6.27e-4 0 1 -0.55036,0.25632 2.3353636,2.2814925 6.27e-4 0 1 -0.59944,0.10852 2.3353636,2.2814925 6.27e-4 0 1 -0.42582,-0.0336 l -0.003,5.2e-4 -0.002,0.0181 -4.54649,-0.71416 -6.4642,-1.01493 -35.90531,-5.63841 -0.36328,-0.0594 -5.2e-4,0.002 a 5.1503825,5.1503763 12.034796 0 0 -0.46251,-0.0553 5.1503825,5.1503763 12.034796 0 0 -1.46192,0.11059 5.1503825,5.1503763 12.034796 0 0 -1.37098,0.5178 5.1503825,5.1503763 12.034796 0 0 -1.16995,0.88366 5.1503825,5.1503763 12.034796 0 0 -0.49351,0.66456 5.1503825,5.1503763 12.034796 0 0 -0.38034,0.51263 5.1503825,5.1503763 12.034796 0 0 -0.50643,1.37563 5.1503825,5.1503763 12.034796 0 0 -0.0853,1.60869 5.1503825,5.1503763 12.034796 0 0 0.27079,1.0113 5.1503825,5.1503763 12.034796 0 0 0.14573,0.54571 5.1503825,5.1503763 12.034796 0 0 0.87643,1.35185 5.1503825,5.1503763 12.034796 0 0 1.25212,1.01493 5.1503825,5.1503763 12.034796 0 0 1.50327,0.57826 5.1503825,5.1503763 12.034796 0 0 5.1e-4,0 5.1503825,5.1503763 12.034796 0 0 10e-4,0 5.1503825,5.1503763 12.034796 0 0 0.54415,0.0858 l 47.03848,7.38043 a 8.1133839,6.2668076 0 0 1 -0.23462,1.34979 8.1133839,6.2668076 0 0 1 -0.63613,1.31464 8.1133839,6.2668076 0 0 1 -0.99942,1.17203 8.1133839,6.2668076 0 0 1 -1.31155,0.971 8.1133839,6.2668076 0 0 1 -1.55856,0.72088 8.1133839,6.2668076 0 0 1 -1.72703,0.43512 8.1133839,6.2668076 0 0 1 -1.80919,0.12764 h -3.24011 v -0.0517 h -20.81476 v 0.0517 h -4.41988 a 7.9390645,6.1321627 0 0 1 -1.76682,-0.15348 7.9390645,6.1321627 0 0 1 -1.67793,-0.45372 7.9390645,6.1321627 0 0 1 -1.50482,-0.7307 7.9390645,6.1321627 0 0 1 -1.25729,-0.971 7.9390645,6.1321627 0 0 1 -0.94568,-1.16272 7.9390645,6.1321627 0 0 1 -0.58756,-1.29605 7.9390645,6.1321627 0 0 1 -0.19895,-1.36426 h 23.81457 c 0.0981,0 0.19388,-0.0101 0.28628,-0.0289 0.0924,-0.0188 0.18132,-0.0464 0.26614,-0.0822 0.0848,-0.0358 0.16545,-0.0794 0.24081,-0.13023 0.0754,-0.0508 0.14578,-0.10909 0.20981,-0.17311 0.064,-0.064 0.12177,-0.13394 0.1726,-0.20929 0.0508,-0.0754 0.0945,-0.15599 0.13022,-0.24081 0.0358,-0.0848 0.0633,-0.17374 0.0822,-0.26614 0.0188,-0.0924 0.0289,-0.18816 0.0289,-0.28628 0,-0.0981 -0.0101,-0.19389 -0.0289,-0.28629 -0.0188,-0.0924 -0.0464,-0.18132 -0.0822,-0.26614 -0.0358,-0.0848 -0.0794,-0.16545 -0.13022,-0.24081 -0.0508,-0.0754 -0.10858,-0.14577 -0.1726,-0.2098 -0.064,-0.064 -0.13445,-0.12177 -0.20981,-0.1726 -0.0754,-0.0508 -0.156,-0.0945 -0.24081,-0.13023 -0.0848,-0.0358 -0.17373,-0.0639 -0.26614,-0.0827 -0.0924,-0.0188 -0.18816,-0.0284 -0.28628,-0.0284 H 91.59464 v -2.53266 c 0,-0.0981 -0.0101,-0.19389 -0.0289,-0.28629 -0.0188,-0.0924 -0.0464,-0.18132 -0.0822,-0.26614 -0.0357,-0.0848 -0.0794,-0.16545 -0.13022,-0.24081 -0.0508,-0.0754 -0.10909,-0.14526 -0.17312,-0.20929 -0.064,-0.064 -0.13393,-0.12228 -0.20929,-0.17311 -0.0754,-0.0508 -0.156,-0.0945 -0.24081,-0.13023 -0.0848,-0.0358 -0.17373,-0.0639 -0.26613,-0.0827 -0.0924,-0.0188 -0.18817,-0.0284 -0.28629,-0.0284 -0.0981,0 -0.19388,0.01 -0.28629,0.0284 -0.0924,0.0188 -0.18132,0.0469 -0.26613,0.0827 -0.0848,0.0357 -0.16546,0.0794 -0.24081,0.13023 -0.0754,0.0508 -0.14578,0.10908 -0.20981,0.17311 -0.064,0.064 -0.12177,0.13393 -0.1726,0.20929 -0.0508,0.0754 -0.0945,0.15601 -0.13022,0.24081 -0.0358,0.0848 -0.0639,0.17373 -0.0827,0.26614 -0.0188,0.0924 -0.0284,0.18817 -0.0284,0.28629 v 2.53266 2.83393 a 8.9457741,8.9457741 0 0 0 0.22428,1.99058 8.9457741,8.9457741 0 0 0 0.66146,1.89084 8.9457741,8.9457741 0 0 0 1.06608,1.69602 8.9457741,8.9457741 0 0 0 1.41645,1.41645 8.9457741,8.9457741 0 0 0 1.69602,1.06609 8.9457741,8.9457741 0 0 0 1.89084,0.66146 8.9457741,8.9457741 0 0 0 1.99058,0.22427 h 6.24716 v 2.15026 a 5.061017,5.061017 0 0 0 5.06068,5.06067 h 10.70374 a 5.0503324,5.0503324 0 0 0 5.05034,-5.05034 v -2.16059 h 5.02346 a 9.1421979,9.1421979 0 0 0 2.03864,-0.18603 9.1421979,9.1421979 0 0 0 1.94613,-0.63459 9.1421979,9.1421979 0 0 0 1.75648,-1.05213 9.1421979,9.1421979 0 0 0 1.47795,-1.41645 9.1421979,9.1421979 0 0 0 0.56172,-0.8537 9.1421979,9.1421979 0 0 0 0.56379,-0.85628 9.1421979,9.1421979 0 0 0 0.71727,-1.91771 9.1421979,9.1421979 0 0 0 0.20826,-1.55236 9.1421979,9.1421979 0 0 0 0.0641,-0.47646 v -1.20044 c 0,-0.0981 -0.0101,-0.19389 -0.0289,-0.28629 -0.0188,-0.0924 -0.0464,-0.18133 -0.0822,-0.26613 -0.0357,-0.0848 -0.0794,-0.16541 -0.13023,-0.24081 -0.0508,-0.0754 -0.10911,-0.14529 -0.17311,-0.20929 -0.064,-0.064 -0.13389,-0.12232 -0.20929,-0.17312 -0.0754,-0.0508 -0.15602,-0.0944 -0.24082,-0.13022 -0.0848,-0.0358 -0.17375,-0.0639 -0.26613,-0.0827 -0.0409,-0.008 -0.0825,-0.0143 -0.12454,-0.0191 l -43.94615,-6.89518 -4.53151,-0.71107 0.001,-0.008 a 2.3353636,2.2814925 6.27e-4 0 1 -0.10438,-0.008 2.3353636,2.2814925 6.27e-4 0 1 -0.57464,-0.19895 2.3353636,2.2814925 6.27e-4 0 1 -0.5023,-0.33797 2.3353636,2.2814925 6.27e-4 0 1 -0.39584,-0.4532 2.3353636,2.2814925 6.27e-4 0 1 -0.262,-0.53744 2.3353636,2.2814925 6.27e-4 0 1 -0.11059,-0.58549 2.3353636,2.2814925 6.27e-4 0 1 0.0481,-0.59376 2.3353636,2.2814925 6.27e-4 0 1 0.47698,-0.96997 2.3353636,2.2814925 6.27e-4 0 1 0.87901,-0.64854 2.3353636,2.2814925 6.27e-4 0 1 1.08521,-0.18241 2.3353636,2.2814925 6.27e-4 0 1 0.18965,0.0258 l 0.001,-0.005 4.55735,0.71571 6.23838,0.97979 25.5266,4.00854 11.0107,1.72909 0.002,-0.015 a 5.1503825,5.1503763 12.034796 0 0 0.43615,0.0579 5.1503825,5.1503763 12.034796 0 0 0.8077,-0.0207 5.1503825,5.1503763 12.034796 0 0 0.79478,-0.14676 5.1503825,5.1503763 12.034796 0 0 0.76223,-0.26923 5.1503825,5.1503763 12.034796 0 0 0.71055,-0.38551 5.1503825,5.1503763 12.034796 0 0 0.64131,-0.49144 5.1503825,5.1503763 12.034796 0 0 0.7028,-0.86661 5.1503825,5.1503763 12.034796 0 0 0.3116,-0.38499 5.1503825,5.1503763 12.034796 0 0 0.34882,-0.72916 5.1503825,5.1503763 12.034796 0 0 0.22996,-0.77463 5.1503825,5.1503763 12.034796 0 0 0.0884,-0.57051 5.1503825,5.1503763 12.034796 0 0 0.0243,-0.57722 5.1503825,5.1503763 12.034796 0 0 -0.0408,-0.57619 5.1503825,5.1503763 12.034796 0 0 -0.1049,-0.56793 5.1503825,5.1503763 12.034796 0 0 -0.0946,-0.31109 h 5.1e-4 a 5.1503825,5.1503763 12.034796 0 0 -0.0734,-0.24184 5.1503825,5.1503763 12.034796 0 0 -0.22841,-0.5302 5.1503825,5.1503763 12.034796 0 0 -0.2868,-0.50127 5.1503825,5.1503763 12.034796 0 0 -0.34055,-0.46663 5.1503825,5.1503763 12.034796 0 0 -0.39119,-0.42478 5.1503825,5.1503763 12.034796 0 0 -0.43615,-0.37879 5.1503825,5.1503763 12.034796 0 0 -0.47594,-0.32763 5.1503825,5.1503763 12.034796 0 0 -0.50901,-0.27182 5.1503825,5.1503763 12.034796 0 0 -0.53692,-0.21342 5.1503825,5.1503763 12.034796 0 0 -0.48472,-0.1323 h -5.2e-4 -5.2e-4 a 5.1503825,5.1503763 12.034796 0 0 -0.0718,-0.0196 5.1503825,5.1503763 12.034796 0 0 -0.47129,-0.0656 l -38.3222,-6.01255 -6.21926,-0.97566 -4.57698,-0.7307 0.002,-0.01 a 2.3353636,2.2814925 6.27e-4 0 1 -0.0543,-0.007 2.3353636,2.2814925 6.27e-4 0 1 -0.38912,-0.11627 2.3353636,2.2814925 6.27e-4 0 1 -0.36225,-0.18087 2.3353636,2.2814925 6.27e-4 0 1 -0.32505,-0.23926 2.3353636,2.2814925 6.27e-4 0 1 -0.2775,-0.29094 2.3353636,2.2814925 6.27e-4 0 1 -0.22169,-0.33383 2.3353636,2.2814925 6.27e-4 0 1 -0.15865,-0.36586 2.3353636,2.2814925 6.27e-4 0 1 -0.0915,-0.38758 2.3353636,2.2814925 6.27e-4 0 1 -0.0212,-0.39739 2.3353636,2.2814925 6.27e-4 0 1 0.0496,-0.39481 2.3353636,2.2814925 6.27e-4 0 1 0.17931,-0.51263 2.3353636,2.2814925 6.27e-4 0 1 0.29766,-0.45682 2.3353636,2.2814925 6.27e-4 0 1 0.39998,-0.37569 2.3353636,2.2814925 6.27e-4 0 1 0.47904,-0.27285 2.3353636,2.2814925 6.27e-4 0 1 0.5271,-0.15296 2.3353636,2.2814925 6.27e-4 0 1 0.54518,-0.0284 l 0.004,5.2e-4 a 2.3353636,2.2814925 6.27e-4 0 1 0.002,-5.2e-4 2.3353636,2.2814925 6.27e-4 0 1 0.008,-0.002 2.3353636,2.2814925 6.27e-4 0 1 0.009,0.001 2.3353636,2.2814925 6.27e-4 0 0 -0.009,-5.1e-4 2.3353636,2.2814925 6.27e-4 0 0 -0.008,0.002 l 0.40669,0.0641 4.35271,0.68316 a 5.1503825,5.1503763 12.034796 0 1 0,5.2e-4 l 42.00105,6.58978 a 5.1503825,5.1503763 12.034796 0 0 0.11576,0.0444 5.1503825,5.1503763 12.034796 0 0 0.25321,0.0134 5.1503825,5.1503763 12.034796 0 0 1.35599,0.0718 5.1503825,5.1503763 12.034796 0 0 1.5565,-0.41652 5.1503825,5.1503763 12.034796 0 0 1.35185,-0.87643 5.1503825,5.1503763 12.034796 0 0 0.72502,-0.894 l -4.10621,-0.64389 v -5.1e-4 l 4.10828,0.6444 a 5.1503825,5.1503763 12.034796 0 0 0.2899,-0.3576 5.1503825,5.1503763 12.034796 0 0 0.18811,-0.3576 5.1503825,5.1503763 12.034796 0 0 0.16019,-0.37156 5.1503825,5.1503763 12.034796 0 0 0.13023,-0.38292 5.1503825,5.1503763 12.034796 0 0 0.0997,-0.3917 5.1503825,5.1503763 12.034796 0 0 0.004,-0.0207 5.1503825,5.1503763 12.034796 0 0 0.005,-0.0202 5.1503825,5.1503763 12.034796 0 0 0.004,-0.0202 5.1503825,5.1503763 12.034796 0 0 0.004,-0.0202 5.1503825,5.1503763 12.034796 0 0 0.004,-0.0207 5.1503825,5.1503763 12.034796 0 0 0.004,-0.0207 5.1503825,5.1503763 12.034796 0 0 0.004,-0.0202 5.1503825,5.1503763 12.034796 0 0 0.004,-0.0207 5.1503825,5.1503763 12.034796 0 0 0.004,-0.0202 5.1503825,5.1503763 12.034796 0 0 0.004,-0.0202 5.1503825,5.1503763 12.034796 0 0 0.004,-0.0207 5.1503825,5.1503763 12.034796 0 0 0.003,-0.0207 5.1503825,5.1503763 12.034796 0 0 0.003,-0.0207 5.1503825,5.1503763 12.034796 0 0 0.004,-0.0202 5.1503825,5.1503763 12.034796 0 0 0.003,-0.0202 5.1503825,5.1503763 12.034796 0 0 0.003,-0.0207 5.1503825,5.1503763 12.034796 0 0 0.003,-0.0207 5.1503825,5.1503763 12.034796 0 0 0.003,-0.0207 5.1503825,5.1503763 12.034796 0 0 0.003,-0.0212 5.1503825,5.1503763 12.034796 0 0 0.003,-0.0202 5.1503825,5.1503763 12.034796 0 0 0.003,-0.0207 5.1503825,5.1503763 12.034796 0 0 0.003,-0.0207 5.1503825,5.1503763 12.034796 0 0 0.003,-0.0202 5.1503825,5.1503763 12.034796 0 0 10e-4,-0.0207 5.1503825,5.1503763 12.034796 0 0 0.003,-0.0207 5.1503825,5.1503763 12.034796 0 0 0.002,-0.0207 5.1503825,5.1503763 12.034796 0 0 0.002,-0.0207 5.1503825,5.1503763 12.034796 0 0 0.002,-0.0207 5.1503825,5.1503763 12.034796 0 0 0.0238,-0.57671 5.1503825,5.1503763 12.034796 0 0 -0.0403,-0.57619 5.1503825,5.1503763 12.034796 0 0 -0.10491,-0.56793 5.1503825,5.1503763 12.034796 0 0 -0.16794,-0.55293 5.1503825,5.1503763 12.034796 0 0 -0.22841,-0.5302 5.1503825,5.1503763 12.034796 0 0 -0.28681,-0.50178 5.1503825,5.1503763 12.034796 0 0 -0.34106,-0.46612 5.1503825,5.1503763 12.034796 0 0 -0.39068,-0.42478 5.1503825,5.1503763 12.034796 0 0 -0.43615,-0.37879 5.1503825,5.1503763 12.034796 0 0 -0.47593,-0.32763 5.1503825,5.1503763 12.034796 0 0 -0.002,-0.001 v 0.002 l -0.006,5.2e-4 a 5.1503825,5.1503763 12.034796 0 0 -0.50747,-0.27078 5.1503825,5.1503763 12.034796 0 0 -0.53691,-0.21343 5.1503825,5.1503763 12.034796 0 0 -0.55708,-0.15193 5.1503825,5.1503763 12.034796 0 0 -0.52761,-0.0734 5.1503825,5.1503763 12.034796 0 0 -0.20051,-0.0279 5.1503825,5.1503763 12.034796 0 0 -0.73432,0.003 5.1503825,5.1503763 12.034796 0 0 -0.16795,0.0248 h -3.92069 l 3.31298,-3.69331 0.005,0.005 0.91777,-1.03353 11.79773,-13.15269 c 0.0654,-0.073 0.12138,-0.15072 0.16898,-0.23202 a 55.740665,55.740665 0 0 1 -1.27951,1.34927 l 6.51175,-7.3334 c 0.0652,-0.0734 0.12117,-0.15146 0.16847,-0.23306 0.007,-0.0117 0.0102,-0.0244 0.0165,-0.0362 a 55.796329,55.796329 0 0 0 0.57826,-0.57826 55.796329,55.796329 0 0 0 4.77076,-6.37325 55.796329,55.796329 0 0 0 3.81579,-6.98717 55.796329,55.796329 0 0 0 2.78174,-7.45898 55.796329,55.796329 0 0 0 1.69241,-7.77885 55.796329,55.796329 0 0 0 0.56792,-7.940598 55.796329,55.796329 0 0 0 -0.0672,-2.73782 55.796329,55.796329 0 0 0 -0.20154,-2.7311 55.796329,55.796329 0 0 0 -0.33538,-2.71818 55.796329,55.796329 0 0 0 -0.46819,-2.698548 55.796329,55.796329 0 0 0 -0.59996,-2.671674 55.796329,55.796329 0 0 0 -0.73019,-2.639632 55.796329,55.796329 0 0 0 -0.85938,-2.600358 55.796329,55.796329 0 0 0 -0.98547,-2.555399 55.796329,55.796329 0 0 0 -1.10949,-2.503723 55.796329,55.796329 0 0 0 -1.23145,-2.445846 55.796329,55.796329 0 0 0 -1.34979,-2.3828 55.796329,55.796329 0 0 0 -1.46554,-2.314071 55.796329,55.796329 0 0 0 -1.57665,-2.23914 55.796329,55.796329 0 0 0 -1.68517,-2.158524 55.796329,55.796329 0 0 0 -1.78852,-2.073776 55.796329,55.796329 0 0 0 -1.88826,-1.983858 55.796329,55.796329 0 0 0 -1.98385,-1.888257 55.796329,55.796329 0 0 0 -2.07378,-1.788521 55.796329,55.796329 0 0 0 -2.15852,-1.685168 55.796329,55.796329 0 0 0 -2.23914,-1.576648 55.796329,55.796329 0 0 0 -2.31407,-1.465544 55.796329,55.796329 0 0 0 -2.3828,-1.349788 55.796329,55.796329 0 0 0 -2.44637,-1.23145 55.796329,55.796329 0 0 0 -2.5032,-1.109493 55.796329,55.796329 0 0 0 -2.5554,-0.985469 55.796329,55.796329 0 0 0 -2.60036,-0.859379 55.796329,55.796329 0 0 0 -2.63963,-0.730188 55.796329,55.796329 0 0 0 -2.67167,-0.599964 55.796329,55.796329 0 0 0 -2.69855,-0.468188 55.796329,55.796329 0 0 0 -2.71818,-0.33538 55.796329,55.796329 0 0 0 -2.7311,-0.201538 55.796329,55.796329 0 0 0 -2.73781,-0.06718 z m -5.95726,5.386751 c -1.48838,0.11187 -2.97495,0.516891 -4.42247,0.884701 -2.54808,0.748079 -4.85044,1.617133 -7.02386,2.586922 -0.39792,0.17756 -1.73171,1.092998 -1.20975,2.188497 0.42024,0.882009 1.13578,0.926768 1.75442,0.679028 1.5239,-0.704399 3.98598,-1.768775 7.27759,-2.735234 1.44542,-0.379269 2.90625,-0.697183 4.37855,-0.952913 1.5088,-0.706519 1.48544,-2.567401 -0.75448,-2.651001 z m -15.48743,5.783626 c -0.33099,0.01729 -0.71313,0.116209 -1.12603,0.33228 -0.76108,0.439799 -1.5153,0.890785 -2.25516,1.366325 -2.23529,1.436478 -4.36515,3.03079 -6.37325,4.770768 -2.00801,1.739948 -3.88917,3.621116 -5.62911,5.629114 -1.73998,2.008108 -3.33429,4.137954 -4.77077,6.373254 -1.4365,2.235241 -2.71151,4.570247 -3.81527,6.98717 -1.10366,2.416914 -2.03328,4.90961 -2.78175,7.458981 -0.74863,2.54933 -1.3142,5.148925 -1.6924,7.778855 -0.18229,1.30844 0.50433,1.9615 1.08831,2.15697 0.89903,0.30092 1.58374,-0.93176 1.71669,-1.75389 0.35889,-2.49628 0.89562,-4.96374 1.6061,-7.383535 0.71052,-2.419915 1.59299,-4.786017 2.64067,-7.080191 1.04769,-2.294297 2.25792,-4.510837 3.62148,-6.632671 1.36368,-2.121676 2.87718,-4.143242 4.52892,-6.049243 1.65145,-1.906038 3.43694,-3.691714 5.34283,-5.343343 1.90618,-1.651588 3.92792,-3.164917 6.04976,-4.528406 0.7723,-0.496339 1.56142,-0.964788 2.358,-1.420068 0.82476,-0.565059 1.23252,-1.293369 0.62218,-2.231388 -0.17031,-0.26175 -0.57954,-0.459789 -1.1312,-0.430982 z m 15.19184,43.986467 c -0.42987,0.005 -0.86751,0.0278 -1.31051,0.0677 -3.3757,0.35307 -5.74677,1.71085 -7.45795,3.72845 -0.84384,1.490158 -1.47721,3.100618 -1.57199,5.018818 0.12452,2.03703 0.32638,4.06689 2.13682,5.94589 2.55088,2.90022 5.43986,4.0731 9.00927,1.77353 1.28015,-1.28474 2.29615,-2.80837 1.3503,-6.10712 -0.58819,-1.76921 -2.23063,-2.9475 -4.15168,-3.9703 -1.2039,-0.415 -2.47823,-0.74615 -4.21267,-0.52451 -0.41931,0.29261 -0.87148,0.53859 -0.92707,1.35082 0.10442,0.39111 0.20961,0.78195 0.6289,1.17305 1.03629,0.27374 2.56281,0.13315 3.63699,0.69608 2.04729,1.07289 3.7189,3.44511 1.91409,5.03174 -2.07175,1.56085 -3.70739,0.4907 -4.87257,-0.86817 -1.60253,-1.86892 -2.28913,-5.1072 -1.04541,-7.40316 1.09511,-1.813998 2.96309,-2.855428 5.7242,-3.003438 2.77697,-0.3572 4.94886,0.0418 6.65127,1.02785 1.744,0.48672 2.49645,-0.64277 1.45934,-2.03554 -1.33006,-1.16235 -3.95227,-1.93943 -6.96133,-1.90169 z m 17.21962,1.27227 c -1.60597,-0.005 -3.20447,0.16402 -4.80487,0.28681 -3.53228,1.2105 -6.2636,2.7805 -6.72052,5.371758 -1.86899,2.79383 -1.3001,7.55271 0.33124,8.44858 1.97495,2.36269 3.66931,2.27426 5.2064,1.82211 3.33991,-1.05757 5.11672,-3.7386 3.54966,-9.8919 l -2.2009,-2.12958 c -2.20442,-0.568638 -2.83334,1.55859 -0.82838,2.72128 3.82242,7.72633 -5.69928,10.02501 -3.8809,1.11207 0.27952,-1.91631 1.50483,-3.26528 3.36052,-4.23591 4.79791,-1.569398 7.30759,-0.635958 10.17561,-0.0946 2.07719,0.0116 2.05244,-1.386208 0.66249,-2.650488 -1.63075,-0.57528 -3.24438,-0.75496 -4.85035,-0.76016 z M 93.03308,166.75046 a 5.1503825,5.1503763 12.034796 0 1 -0.14469,0.10232 5.1503825,5.1503763 12.034796 0 1 -0.14986,0.0889 5.1503825,5.1503763 12.034796 0 0 0.29455,-0.19121 z m -1.44694,0.70435 a 5.1503825,5.1503763 12.034796 0 1 -0.17001,0.0527 5.1503825,5.1503763 12.034796 0 1 -0.17157,0.0388 5.1503825,5.1503763 12.034796 0 0 0.34158,-0.0915 z m 46.07677,0.55346 c -0.78496,0 -1.41696,0.632 -1.41696,1.41696 v 1.23507 c 0,0.78497 0.632,1.41697 1.41696,1.41697 0.78498,0 1.41697,-0.632 1.41697,-1.41697 v -1.23507 c 0,-0.78496 -0.63199,-1.41696 -1.41697,-1.41696 z m -47.53818,0.0713 c -0.78496,0 -1.41697,0.632 -1.41697,1.41697 v 1.23506 c 0,0.78497 0.63201,1.41646 1.41697,1.41646 0.78497,0 1.41697,-0.63149 1.41697,-1.41646 v -1.23506 c 0,-0.78497 -0.632,-1.41697 -1.41697,-1.41697 z m 2.5244,13.69839 a 5.1503825,5.1503763 12.034796 0 1 -0.0713,0.0548 5.1503825,5.1503763 12.034796 0 1 -0.0796,0.0429 5.1503825,5.1503763 12.034796 0 0 0.1509,-0.0977 z m -1.45728,0.67903 a 5.1503825,5.1503763 12.034796 0 1 -0.0863,0.0305 5.1503825,5.1503763 12.034796 0 1 -0.0915,0.0171 5.1503825,5.1503763 12.034796 0 0 0.17777,-0.0475 z m -1.77612,0.18603 a 5.1503825,5.1503763 12.034796 0 0 0.17673,0.01 5.1503825,5.1503763 12.034796 0 1 -0.0889,0.002 5.1503825,5.1503763 12.034796 0 1 -0.0879,-0.0119 z m 48.24718,0.33228 c -0.78496,0 -1.41696,0.632 -1.41696,1.41697 v 1.23507 c 0,0.78497 0.632,1.41645 1.41696,1.41645 0.78498,0 1.41697,-0.63148 1.41697,-1.41645 v -1.23507 c 0,-0.78497 -0.63199,-1.41697 -1.41697,-1.41697 z m -31.01309,15.94425 h 15.351 v 2.98225 a 2.3743716,1.4324537 0 0 1 -2.37453,1.43247 h -10.60194 a 2.3743716,1.4324537 0 0 1 -2.37453,-1.43247 z" />
  </g>
</svg>
