<?xml version="1.0" encoding="UTF-8" standalone="no"?>
<!-- Created with Inkscape (http://www.inkscape.org/) -->

<svg
   width="111.59267mm"
   height="165.91339mm"
   viewBox="0 0 111.59267 165.91339"
   version="1.1"
   id="svg1"
   xml:space="preserve"
   inkscape:version="1.3 (0e150ed, 2023-07-21)"
   sodipodi:docname="on-bulb.svg"
   xmlns:inkscape="http://www.inkscape.org/namespaces/inkscape"
   xmlns:sodipodi="http://sodipodi.sourceforge.net/DTD/sodipodi-0.dtd"
   xmlns="http://www.w3.org/2000/svg"
   xmlns:svg="http://www.w3.org/2000/svg"><sodipodi:namedview
     id="namedview1"
     pagecolor="#000000"
     bordercolor="#000000"
     borderopacity="0.25"
     inkscape:showpageshadow="2"
     inkscape:pageopacity="0.0"
     inkscape:pagecheckerboard="0"
     inkscape:deskcolor="#d1d1d1"
     inkscape:document-units="mm"
     inkscape:zoom="1.2691605"
     inkscape:cx="92.580882"
     inkscape:cy="321.8663"
     inkscape:window-width="2560"
     inkscape:window-height="1412"
     inkscape:window-x="0"
     inkscape:window-y="28"
     inkscape:window-maximized="0"
     inkscape:current-layer="layer1"
     showguides="true" /><defs
     id="defs1"><inkscape:path-effect
       effect="fillet_chamfer"
       id="path-effect16"
       is_visible="true"
       lpeversion="1"
       nodesatellites_param="F,0,0,1,0,0,0,1 @ F,0,0,1,0,0,0,1 @ F,0,0,1,0,9.3344893,0,1 @ F,0,0,1,0,8.9457741,0,1"
       radius="0"
       unit="px"
       method="auto"
       mode="F"
       chamfer_steps="1"
       flexible="false"
       use_knot_distance="true"
       apply_no_radius="true"
       apply_with_radius="true"
       only_selected="false"
       hide_knots="false" /><inkscape:path-effect
       effect="fillet_chamfer"
       id="path-effect14"
       is_visible="true"
       lpeversion="1"
       nodesatellites_param="F,0,0,1,0,0,0,1 @ F,0,0,1,0,0,0,1 @ F,0,0,1,0,9.3344893,0,1 @ F,0,0,1,0,8.9457741,0,1"
       radius="0"
       unit="px"
       method="auto"
       mode="F"
       chamfer_steps="1"
       flexible="false"
       use_knot_distance="true"
       apply_no_radius="true"
       apply_with_radius="true"
       only_selected="false"
       hide_knots="false" /><inkscape:path-effect
       effect="fillet_chamfer"
       id="path-effect3"
       is_visible="true"
       lpeversion="1"
       nodesatellites_param="F,0,0,1,0,0,0,1 @ F,0,0,1,0,0,0,1 @ F,0,0,1,0,3.2195731,0,1 @ F,0,0,1,0,3.2195731,0,1"
       radius="2.9804634"
       unit="px"
       method="auto"
       mode="F"
       chamfer_steps="1"
       flexible="false"
       use_knot_distance="true"
       apply_no_radius="true"
       apply_with_radius="true"
       only_selected="false"
       hide_knots="false" /><inkscape:path-effect
       effect="fillet_chamfer"
       id="path-effect1"
       is_visible="true"
       lpeversion="1"
       nodesatellites_param="F,0,0,1,0,0,0,1 @ F,0,0,1,0,0,0,1 @ F,0,0,1,0,5.0503324,0,1 @ F,0,0,1,0,5.061017,0,1"
       radius="0"
       unit="px"
       method="auto"
       mode="F"
       chamfer_steps="1"
       flexible="false"
       use_knot_distance="true"
       apply_no_radius="true"
       apply_with_radius="true"
       only_selected="false"
       hide_knots="false" /></defs><g
     inkscape:label="Layer 1"
     inkscape:groupmode="layer"
     id="layer1"
     transform="translate(-46.921684,-57.06215)"><path
       id="rect1"
       style="font-variation-settings:'wght' 600;fill:#ffffff;fill-opacity:1;stroke:none;stroke-width:0.263673;stroke-linecap:round;stroke-linejoin:round;stroke-miterlimit:30"
       d="m 102.71776,57.06215 a 55.796329,55.796329 0 0 0 -7.940599,0.567924 55.796329,55.796329 0 0 0 -7.778854,1.692403 55.796329,55.796329 0 0 0 -7.458976,2.781743 55.796329,55.796329 0 0 0 -6.98717,3.815787 55.796329,55.796329 0 0 0 -6.373255,4.770769 55.796329,55.796329 0 0 0 -5.629114,5.629113 55.796329,55.796329 0 0 0 -4.770768,6.373255 55.796329,55.796329 0 0 0 -3.815271,6.98717 55.796329,55.796329 0 0 0 -2.781742,7.458976 55.796329,55.796329 0 0 0 -1.692403,7.77885 55.796329,55.796329 0 0 0 -0.567924,7.9406 55.796329,55.796329 0 0 0 0.567924,7.9406 55.796329,55.796329 0 0 0 1.692403,7.77886 55.796329,55.796329 0 0 0 2.781742,7.45897 55.796329,55.796329 0 0 0 3.815271,6.98717 55.796329,55.796329 0 0 0 4.770768,6.37274 55.796329,55.796329 0 0 0 0.671794,0.6718 c 0.04729,0.0816 0.103318,0.15969 0.168465,0.23306 l 18.117241,20.40237 h 35.485688 l 1.46089,-2.84375 -3.18688,0.002 -0.004,0.008 h -1.68413 -8.68578 l -0.55913,5.2e-4 -0.001,0.045 -15.841409,-0.0336 -0.480074,5.2e-4 0.001,-0.002 -5.231205,-0.0109 C 74.676078,160.95522 67.527408,153.33275 62.735189,147.58479 a 52.962399,52.962399 0 0 1 -0.04341,-0.0434 52.962399,52.962399 0 0 1 -0.05684,-0.076 c -1.925144,-2.31439 -3.448298,-4.3096 -4.363558,-5.8291 a 52.962399,52.962399 0 0 1 -0.108004,-0.14418 52.962399,52.962399 0 0 1 -3.621485,-6.63215 52.962399,52.962399 0 0 1 -2.640665,-7.08019 52.962399,52.962399 0 0 1 -1.606621,-7.38353 52.962399,52.962399 0 0 1 -0.538985,-7.53753 52.962399,52.962399 0 0 1 0.538985,-7.53752 52.962399,52.962399 0 0 1 1.606104,-7.383529 52.962399,52.962399 0 0 1 2.640666,-7.080188 52.962399,52.962399 0 0 1 3.621484,-6.63267 52.962399,52.962399 0 0 1 4.528923,-6.049243 52.962399,52.962399 0 0 1 5.342826,-5.343343 52.962399,52.962399 0 0 1 6.04976,-4.528406 52.962399,52.962399 0 0 1 6.632153,-3.621484 52.962399,52.962399 0 0 1 7.080188,-2.640666 52.962399,52.962399 0 0 1 7.383529,-1.60662 52.962399,52.962399 0 0 1 7.537521,-0.538985 52.962399,52.962399 0 0 1 2.68252,0.06821 52.962399,52.962399 0 0 1 2.67581,0.203605 52.962399,52.962399 0 0 1 2.66185,0.338997 52.962399,52.962399 0 0 1 2.64119,0.473356 52.962399,52.962399 0 0 1 2.61379,0.606681 52.962399,52.962399 0 0 1 2.57969,0.73794 52.962399,52.962399 0 0 1 2.53938,0.868164 52.962399,52.962399 0 0 1 2.49183,0.995288 52.962399,52.962399 0 0 1 2.43862,1.120345 52.962399,52.962399 0 0 1 2.37815,1.242302 52.962399,52.962399 0 0 1 2.31252,1.361157 52.962399,52.962399 0 0 1 2.24069,1.476912 52.962399,52.962399 0 0 1 2.16265,1.588017 52.962399,52.962399 0 0 1 2.07998,1.695504 52.962399,52.962399 0 0 1 1.99109,1.799373 52.962399,52.962399 0 0 1 1.89705,1.897042 52.962399,52.962399 0 0 1 1.79937,1.991093 52.962399,52.962399 0 0 1 1.6955,2.079976 52.962399,52.962399 0 0 1 1.58802,2.162659 52.962399,52.962399 0 0 1 1.47691,2.24069 52.962399,52.962399 0 0 1 1.36116,2.31252 52.962399,52.962399 0 0 1 1.2423,2.37815 52.962399,52.962399 0 0 1 1.12035,2.438611 52.962399,52.962399 0 0 1 0.99528,2.491837 52.962399,52.962399 0 0 1 0.86817,2.53938 52.962399,52.962399 0 0 1 0.73794,2.579688 52.962399,52.962399 0 0 1 0.60668,2.613797 52.962399,52.962399 0 0 1 0.47335,2.64118 52.962399,52.962399 0 0 1 0.339,2.66186 52.962399,52.962399 0 0 1 0.20361,2.6758 52.962399,52.962399 0 0 1 0.0682,2.68252 52.962399,52.962399 0 0 1 -0.53899,7.53753 52.962399,52.962399 0 0 1 -1.60662,7.38353 52.962399,52.962399 0 0 1 -2.64066,7.08019 52.962399,52.962399 0 0 1 -3.62149,6.63215 52.962399,52.962399 0 0 1 -4.5284,6.04976 52.962399,52.962399 0 0 1 -1.55443,1.55391 l 0.0971,0.0749 -10.40918,11.72176 -6.43837,7.25021 -5.55573,6.19342 h -16.32872 c -0.0981,0 -0.19389,0.01 -0.28629,0.0284 -0.0924,0.0188 -0.18131,0.0469 -0.26613,0.0827 -0.0848,0.0358 -0.16545,0.0794 -0.24081,0.13023 -0.0754,0.0508 -0.14578,0.10857 -0.20981,0.1726 -0.064,0.064 -0.12177,0.13445 -0.1726,0.2098 -0.0508,0.0754 -0.0945,0.15601 -0.13022,0.24082 -0.0358,0.0848 -0.0634,0.17372 -0.0822,0.26613 -0.0188,0.0924 -0.0289,0.18816 -0.0289,0.28629 0,0.0981 0.0101,0.19389 0.0289,0.28628 0.0188,0.0924 0.0464,0.18131 0.0822,0.26614 0.0358,0.0848 0.0794,0.16544 0.13022,0.24081 0.0508,0.0754 0.10858,0.14526 0.1726,0.20929 0.064,0.064 0.13445,0.1223 0.20981,0.17312 0.0754,0.0508 0.156,0.0945 0.24081,0.13022 0.0848,0.0358 0.17372,0.0633 0.26613,0.0822 0.0924,0.0188 0.18817,0.0289 0.28629,0.0289 h 20.00085 4.69842 a 2.3353636,2.2814925 6.27e-4 0 1 0.0692,5.2e-4 2.3353636,2.2814925 6.27e-4 0 1 0.3297,0.045 2.3353636,2.2814925 6.27e-4 0 1 0.38912,0.11627 2.3353636,2.2814925 6.27e-4 0 1 0.36277,0.18087 2.3353636,2.2814925 6.27e-4 0 1 0.32505,0.23978 2.3353636,2.2814925 6.27e-4 0 1 0.2775,0.29094 2.3353636,2.2814925 6.27e-4 0 1 0.22169,0.33383 2.3353636,2.2814925 6.27e-4 0 1 0.15865,0.36586 2.3353636,2.2814925 6.27e-4 0 1 0.0915,0.38758 2.3353636,2.2814925 6.27e-4 0 1 0.003,0.0207 2.3353636,2.2814925 6.27e-4 0 1 0.003,0.0212 2.3353636,2.2814925 6.27e-4 0 1 0.003,0.0207 2.3353636,2.2814925 6.27e-4 0 1 0.002,0.0207 2.3353636,2.2814925 6.27e-4 0 1 0.002,0.0212 2.3353636,2.2814925 6.27e-4 0 1 0.002,0.0207 2.3353636,2.2814925 6.27e-4 0 1 0.002,0.0207 2.3353636,2.2814925 6.27e-4 0 1 0.002,0.0212 2.3353636,2.2814925 6.27e-4 0 1 0.002,0.0212 2.3353636,2.2814925 6.27e-4 0 1 0.001,0.0212 2.3353636,2.2814925 6.27e-4 0 1 0.001,0.0217 2.3353636,2.2814925 6.27e-4 0 1 5.2e-4,0.0207 2.3353636,2.2814925 6.27e-4 0 1 5.1e-4,0.0212 2.3353636,2.2814925 6.27e-4 0 1 5.2e-4,0.0207 2.3353636,2.2814925 6.27e-4 0 1 0,5.2e-4 2.3353636,2.2814925 6.27e-4 0 1 0,5.1e-4 2.3353636,2.2814925 6.27e-4 0 1 0,5.2e-4 2.3353636,2.2814925 6.27e-4 0 1 0,5.2e-4 2.3353636,2.2814925 6.27e-4 0 1 0,5.1e-4 2.3353636,2.2814925 6.27e-4 0 1 0,5.2e-4 2.3353636,2.2814925 6.27e-4 0 1 0,5.2e-4 2.3353636,2.2814925 6.27e-4 0 1 0,5.1e-4 2.3353636,2.2814925 6.27e-4 0 1 0,5.2e-4 2.3353636,2.2814925 6.27e-4 0 1 0,5.2e-4 2.3353636,2.2814925 6.27e-4 0 1 0,5.1e-4 2.3353636,2.2814925 6.27e-4 0 1 0,5.2e-4 2.3353636,2.2814925 6.27e-4 0 1 0,5.2e-4 2.3353636,2.2814925 6.27e-4 0 1 0,5.1e-4 2.3353636,2.2814925 6.27e-4 0 1 0,5.2e-4 2.3353636,2.2814925 6.27e-4 0 1 0,5.2e-4 2.3353636,2.2814925 6.27e-4 0 1 0,5.2e-4 2.3353636,2.2814925 6.27e-4 0 1 0,5.1e-4 2.3353636,2.2814925 6.27e-4 0 1 0,5.2e-4 2.3353636,2.2814925 6.27e-4 0 1 0,5.2e-4 2.3353636,2.2814925 6.27e-4 0 1 0,5.1e-4 2.3353636,2.2814925 6.27e-4 0 1 0,5.2e-4 2.3353636,2.2814925 6.27e-4 0 1 0,5.2e-4 2.3353636,2.2814925 6.27e-4 0 1 0,5.1e-4 2.3353636,2.2814925 6.27e-4 0 1 0,5.2e-4 2.3353636,2.2814925 6.27e-4 0 1 0,5.2e-4 2.3353636,2.2814925 6.27e-4 0 1 0,5.1e-4 2.3353636,2.2814925 6.27e-4 0 1 0,5.2e-4 2.3353636,2.2814925 6.27e-4 0 1 0,5.2e-4 2.3353636,2.2814925 6.27e-4 0 1 0,5.1e-4 2.3353636,2.2814925 6.27e-4 0 1 0,5.2e-4 2.3353636,2.2814925 6.27e-4 0 1 0,5.2e-4 2.3353636,2.2814925 6.27e-4 0 1 0,5.1e-4 2.3353636,2.2814925 6.27e-4 0 1 0,5.2e-4 2.3353636,2.2814925 6.27e-4 0 1 0,5.2e-4 2.3353636,2.2814925 6.27e-4 0 1 0,5.1e-4 2.3353636,2.2814925 6.27e-4 0 1 0,5.2e-4 2.3353636,2.2814925 6.27e-4 0 1 0,5.2e-4 2.3353636,2.2814925 6.27e-4 0 1 0,5.1e-4 2.3353636,2.2814925 6.27e-4 0 1 0,5.2e-4 2.3353636,2.2814925 6.27e-4 0 1 0,5.2e-4 2.3353636,2.2814925 6.27e-4 0 1 0,5.1e-4 2.3353636,2.2814925 6.27e-4 0 1 0,5.2e-4 2.3353636,2.2814925 6.27e-4 0 1 0,5.2e-4 2.3353636,2.2814925 6.27e-4 0 1 0,5.1e-4 2.3353636,2.2814925 6.27e-4 0 1 0,5.2e-4 2.3353636,2.2814925 6.27e-4 0 1 0,5.2e-4 2.3353636,2.2814925 6.27e-4 0 1 0,5.1e-4 2.3353636,2.2814925 6.27e-4 0 1 0,5.2e-4 2.3353636,2.2814925 6.27e-4 0 1 0,5.2e-4 2.3353636,2.2814925 6.27e-4 0 1 0,5.2e-4 2.3353636,2.2814925 6.27e-4 0 1 0,5.1e-4 2.3353636,2.2814925 6.27e-4 0 1 0,5.2e-4 2.3353636,2.2814925 6.27e-4 0 1 0,5.2e-4 2.3353636,2.2814925 6.27e-4 0 1 0,5.1e-4 2.3353636,2.2814925 6.27e-4 0 1 0,5.2e-4 2.3353636,2.2814925 6.27e-4 0 1 0,5.2e-4 2.3353636,2.2814925 6.27e-4 0 1 0,5.1e-4 2.3353636,2.2814925 6.27e-4 0 1 0,5.2e-4 2.3353636,2.2814925 6.27e-4 0 1 0,5.2e-4 2.3353636,2.2814925 6.27e-4 0 1 0,5.1e-4 2.3353636,2.2814925 6.27e-4 0 1 0,5.2e-4 2.3353636,2.2814925 6.27e-4 0 1 0,5.2e-4 2.3353636,2.2814925 6.27e-4 0 1 0,5.1e-4 2.3353636,2.2814925 6.27e-4 0 1 0,5.2e-4 2.3353636,2.2814925 6.27e-4 0 1 0,5.2e-4 2.3353636,2.2814925 6.27e-4 0 1 0,5.1e-4 2.3353636,2.2814925 6.27e-4 0 1 0,5.2e-4 2.3353636,2.2814925 6.27e-4 0 1 0,5.2e-4 2.3353636,2.2814925 6.27e-4 0 1 0,5.1e-4 2.3353636,2.2814925 6.27e-4 0 1 0,5.2e-4 2.3353636,2.2814925 6.27e-4 0 1 0,5.2e-4 2.3353636,2.2814925 6.27e-4 0 1 0,5.1e-4 2.3353636,2.2814925 6.27e-4 0 1 0,5.2e-4 2.3353636,2.2814925 6.27e-4 0 1 0,5.2e-4 2.3353636,2.2814925 6.27e-4 0 1 0,5.1e-4 2.3353636,2.2814925 6.27e-4 0 1 0,5.2e-4 2.3353636,2.2814925 6.27e-4 0 1 0,5.2e-4 2.3353636,2.2814925 6.27e-4 0 1 0,5.1e-4 2.3353636,2.2814925 6.27e-4 0 1 -5.2e-4,0.0212 2.3353636,2.2814925 6.27e-4 0 1 -5.1e-4,0.0212 2.3353636,2.2814925 6.27e-4 0 1 -5.2e-4,0.0207 2.3353636,2.2814925 6.27e-4 0 1 -0.0501,0.39481 2.3353636,2.2814925 6.27e-4 0 1 -0.0832,0.2868 2.3353636,2.2814925 6.27e-4 0 1 -0.1204,0.2744 2.3353636,2.2814925 6.27e-4 0 1 -0.15658,0.25632 2.3353636,2.2814925 6.27e-4 0 1 -0.18914,0.23409 2.3353636,2.2814925 6.27e-4 0 1 -0.21911,0.20826 2.3353636,2.2814925 6.27e-4 0 1 -0.24442,0.17828 2.3353636,2.2814925 6.27e-4 0 1 -0.26717,0.14573 2.3353636,2.2814925 6.27e-4 0 1 -0.28371,0.11059 2.3353636,2.2814925 6.27e-4 0 1 -0.26613,0.0599 2.3353636,2.2814925 6.27e-4 0 1 -0.27078,0.0295 2.3353636,2.2814925 6.27e-4 0 1 -0.12454,-0.001 v 5.2e-4 a 2.3353636,2.2814925 6.27e-4 0 1 -0.14832,-0.001 2.3353636,2.2814925 6.27e-4 0 1 -0.16949,-0.0171 l -0.10336,-0.016 -0.2036,-0.032 -4.29741,-0.67438 -42.080121,-6.6027 a 5.1503825,5.1503763 12.034796 0 0 -0.0047,-0.001 l -0.0041,-5.2e-4 a 5.1503825,5.1503763 12.034796 0 0 -0.07855,-0.0217 5.1503825,5.1503763 12.034796 0 0 -0.538468,-0.0749 5.1503825,5.1503763 12.034796 0 0 -0.189653,-0.0264 5.1503825,5.1503763 12.034796 0 0 -1.461409,0.11059 5.1503825,5.1503763 12.034796 0 0 -1.371493,0.51831 5.1503825,5.1503763 12.034796 0 0 -1.169954,0.88315 5.1503825,5.1503763 12.034796 0 0 -0.501778,0.67541 5.1503825,5.1503763 12.034796 0 0 0,5.2e-4 5.1503825,5.1503763 12.034796 0 0 -0.371554,0.50075 5.1503825,5.1503763 12.034796 0 0 -0.302824,0.66972 5.1503825,5.1503763 12.034796 0 0 -0.204122,0.7059 5.1503825,5.1503763 12.034796 0 0 -0.105936,0.8015 5.1503825,5.1503763 12.034796 0 0 0.02119,0.80771 5.1503825,5.1503763 12.034796 0 0 0.110071,0.51676 5.1503825,5.1503763 12.034796 0 0 0.162264,0.50281 l 4.416784,0.6935 0.0021,-0.01 a 2.3353636,2.2814925 6.27e-4 0 1 -0.05426,-0.007 2.3353636,2.2814925 6.27e-4 0 1 -0.389123,-0.11628 2.3353636,2.2814925 6.27e-4 0 1 -0.362252,-0.18086 2.3353636,2.2814925 6.27e-4 0 1 -0.325045,-0.23927 2.3353636,2.2814925 6.27e-4 0 1 -0.277502,-0.29093 2.3353636,2.2814925 6.27e-4 0 1 -0.221692,-0.33383 2.3353636,2.2814925 6.27e-4 0 1 -0.158647,-0.36587 2.3353636,2.2814925 6.27e-4 0 1 -0.09147,-0.38758 2.3353636,2.2814925 6.27e-4 0 1 -0.02119,-0.39739 2.3353636,2.2814925 6.27e-4 0 1 0.04961,-0.39481 2.3353636,2.2814925 6.27e-4 0 1 0.179317,-0.51263 2.3353636,2.2814925 6.27e-4 0 1 0.297656,-0.45682 2.3353636,2.2814925 6.27e-4 0 1 0.399976,-0.37568 2.3353636,2.2814925 6.27e-4 0 1 0.47904,-0.27285 2.3353636,2.2814925 6.27e-4 0 1 0.5271,-0.15297 2.3353636,2.2814925 6.27e-4 0 1 0.545186,-0.0284 l 0.0036,5.2e-4 a 2.3353636,2.2814925 6.27e-4 0 1 0.0093,-0.002 2.3353636,2.2814925 6.27e-4 0 1 0.0093,0.001 2.3353636,2.2814925 6.27e-4 0 0 -0.0093,-5.1e-4 2.3353636,2.2814925 6.27e-4 0 0 -0.0078,0.002 l 0.406694,0.0641 a 2.3353636,2.2814925 6.27e-4 0 0 -0.06925,-0.0207 2.3353636,2.2814925 6.27e-4 0 0 -0.0098,-0.002 2.3353636,2.2814925 6.27e-4 0 1 0.0098,0.002 2.3353636,2.2814925 6.27e-4 0 1 0.06925,0.0207 l 4.352705,0.68316 a 5.1503825,5.1503763 12.034796 0 1 0,5.2e-4 l 42.00106,6.58978 a 5.1503825,5.1503763 12.034796 0 0 0.11575,0.0444 5.1503825,5.1503763 12.034796 0 0 0.25322,0.0134 5.1503825,5.1503763 12.034796 0 0 1.35599,0.0718 5.1503825,5.1503763 12.034796 0 0 1.55649,-0.41652 5.1503825,5.1503763 12.034796 0 0 1.35186,-0.87643 5.1503825,5.1503763 12.034796 0 0 0.72502,-0.894 l -4.10621,-0.64389 v -5.2e-4 l 4.10827,0.64441 a 5.1503825,5.1503763 12.034796 0 0 0.28991,-0.3576 5.1503825,5.1503763 12.034796 0 0 0.1881,-0.3576 5.1503825,5.1503763 12.034796 0 0 0.1602,-0.37156 5.1503825,5.1503763 12.034796 0 0 0.13022,-0.38292 5.1503825,5.1503763 12.034796 0 0 0.0997,-0.39171 5.1503825,5.1503763 12.034796 0 0 0.004,-0.0202 5.1503825,5.1503763 12.034796 0 0 0.005,-0.0202 5.1503825,5.1503763 12.034796 0 0 0.004,-0.0202 5.1503825,5.1503763 12.034796 0 0 0.004,-0.0202 5.1503825,5.1503763 12.034796 0 0 0.004,-0.0207 5.1503825,5.1503763 12.034796 0 0 0.004,-0.0207 5.1503825,5.1503763 12.034796 0 0 0.004,-0.0202 5.1503825,5.1503763 12.034796 0 0 0.004,-0.0207 5.1503825,5.1503763 12.034796 0 0 0.004,-0.0202 5.1503825,5.1503763 12.034796 0 0 0.004,-0.0202 5.1503825,5.1503763 12.034796 0 0 0.004,-0.0207 5.1503825,5.1503763 12.034796 0 0 0.003,-0.0207 5.1503825,5.1503763 12.034796 0 0 0.003,-0.0207 5.1503825,5.1503763 12.034796 0 0 0.004,-0.0202 5.1503825,5.1503763 12.034796 0 0 0.003,-0.0202 5.1503825,5.1503763 12.034796 0 0 0.003,-0.0207 5.1503825,5.1503763 12.034796 0 0 0.003,-0.0207 5.1503825,5.1503763 12.034796 0 0 0.003,-0.0202 5.1503825,5.1503763 12.034796 0 0 0.003,-0.0212 5.1503825,5.1503763 12.034796 0 0 0.003,-0.0202 5.1503825,5.1503763 12.034796 0 0 0.003,-0.0207 5.1503825,5.1503763 12.034796 0 0 0.003,-0.0207 5.1503825,5.1503763 12.034796 0 0 0.003,-0.0202 5.1503825,5.1503763 12.034796 0 0 0.002,-0.0207 5.1503825,5.1503763 12.034796 0 0 0.003,-0.0207 5.1503825,5.1503763 12.034796 0 0 0.002,-0.0207 5.1503825,5.1503763 12.034796 0 0 0.002,-0.0207 5.1503825,5.1503763 12.034796 0 0 0.002,-0.0207 5.1503825,5.1503763 12.034796 0 0 0.0238,-0.57671 5.1503825,5.1503763 12.034796 0 0 -0.0403,-0.57619 5.1503825,5.1503763 12.034796 0 0 -0.10491,-0.56792 5.1503825,5.1503763 12.034796 0 0 -0.16794,-0.55294 5.1503825,5.1503763 12.034796 0 0 -0.22841,-0.5302 5.1503825,5.1503763 12.034796 0 0 -0.28681,-0.50178 5.1503825,5.1503763 12.034796 0 0 -0.34106,-0.46612 5.1503825,5.1503763 12.034796 0 0 -0.39068,-0.42478 5.1503825,5.1503763 12.034796 0 0 -0.43615,-0.37879 5.1503825,5.1503763 12.034796 0 0 -0.47594,-0.32763 5.1503825,5.1503763 12.034796 0 0 -0.002,-10e-4 v 0.002 l -0.006,5.2e-4 a 5.1503825,5.1503763 12.034796 0 0 -0.50747,-0.27079 5.1503825,5.1503763 12.034796 0 0 -0.53691,-0.21342 5.1503825,5.1503763 12.034796 0 0 -0.55708,-0.15193 5.1503825,5.1503763 12.034796 0 0 -0.52761,-0.0734 5.1503825,5.1503763 12.034796 0 0 -0.20051,-0.0279 5.1503825,5.1503763 12.034796 0 0 -0.73432,0.003 5.1503825,5.1503763 12.034796 0 0 -0.16795,0.0248 h -3.92069 l 3.31298,-3.69332 0.005,0.005 0.91777,-1.03353 11.79773,-13.15269 c 0.0654,-0.073 0.12138,-0.15073 0.16898,-0.23203 a 55.740665,55.740665 0 0 1 -1.27951,1.34928 l 6.51175,-7.33341 c 0.0652,-0.0734 0.12116,-0.15146 0.16846,-0.23306 0.007,-0.0117 0.0102,-0.0244 0.0165,-0.0362 a 55.796329,55.796329 0 0 0 0.57826,-0.57826 55.796329,55.796329 0 0 0 4.77077,-6.37326 55.796329,55.796329 0 0 0 3.81579,-6.98717 55.796329,55.796329 0 0 0 2.78174,-7.45897 55.796329,55.796329 0 0 0 1.6924,-7.77886 55.796329,55.796329 0 0 0 0.56793,-7.9406 55.796329,55.796329 0 0 0 -0.0672,-2.73781 55.796329,55.796329 0 0 0 -0.20154,-2.7311 55.796329,55.796329 0 0 0 -0.33538,-2.71818 55.796329,55.796329 0 0 0 -0.46819,-2.69855 55.796329,55.796329 0 0 0 -0.59996,-2.671671 55.796329,55.796329 0 0 0 -0.73019,-2.639632 55.796329,55.796329 0 0 0 -0.85938,-2.600358 55.796329,55.796329 0 0 0 -0.98547,-2.5554 55.796329,55.796329 0 0 0 -1.10949,-2.503723 55.796329,55.796329 0 0 0 -1.23145,-2.445845 55.796329,55.796329 0 0 0 -1.34979,-2.3828 55.796329,55.796329 0 0 0 -1.46554,-2.314071 55.796329,55.796329 0 0 0 -1.57665,-2.23914 55.796329,55.796329 0 0 0 -1.68517,-2.158525 55.796329,55.796329 0 0 0 -1.78852,-2.073775 55.796329,55.796329 0 0 0 -1.88826,-1.983858 55.796329,55.796329 0 0 0 -1.98386,-1.888257 55.796329,55.796329 0 0 0 -2.07377,-1.788521 55.796329,55.796329 0 0 0 -2.15853,-1.685169 55.796329,55.796329 0 0 0 -2.23914,-1.576648 55.796329,55.796329 0 0 0 -2.31407,-1.465543 55.796329,55.796329 0 0 0 -2.3828,-1.349789 55.796329,55.796329 0 0 0 -2.44636,-1.231449 55.796329,55.796329 0 0 0 -2.50321,-1.109493 55.796329,55.796329 0 0 0 -2.5554,-0.98547 55.796329,55.796329 0 0 0 -2.60035,-0.859379 55.796329,55.796329 0 0 0 -2.63964,-0.730188 55.796329,55.796329 0 0 0 -2.67167,-0.599963 55.796329,55.796329 0 0 0 -2.69854,-0.468188 55.796329,55.796329 0 0 0 -2.71818,-0.33538 55.796329,55.796329 0 0 0 -2.7311,-0.201539 55.796329,55.796329 0 0 0 -2.73782,-0.06718 z M 79.214803,177.10237 h -0.0016 v 5.1e-4 a 2.3353636,2.2814925 6.27e-4 0 1 0.0016,-5.1e-4 z m -0.583944,4.52272 -4.416784,-0.69298 a 5.1503825,5.1503763 12.034796 0 0 0.14366,0.53692 5.1503825,5.1503763 12.034796 0 0 0.876949,1.35237 5.1503825,5.1503763 12.034796 0 0 1.251603,1.01441 5.1503825,5.1503763 12.034796 0 0 1.503785,0.57826 5.1503825,5.1503763 12.034796 0 0 1.108976,0.1111 l 9.869165,1.61954 34.020147,5.33818 4.31136,0.67644 0.39636,0.062 a 2.3353636,2.2814925 6.27e-4 0 1 5.2e-4,0 2.3353636,2.2814925 6.27e-4 0 1 0.32763,0.0982 2.3353636,2.2814925 6.27e-4 0 1 0.36277,0.18086 2.3353636,2.2814925 6.27e-4 0 1 0.32504,0.23978 2.3353636,2.2814925 6.27e-4 0 1 0.2775,0.29094 2.3353636,2.2814925 6.27e-4 0 1 0.22118,0.33383 2.3353636,2.2814925 6.27e-4 0 1 0.15916,0.36587 2.3353636,2.2814925 6.27e-4 0 1 0.0915,0.38809 2.3353636,2.2814925 6.27e-4 0 1 0.004,0.0284 2.3353636,2.2814925 6.27e-4 0 1 0.004,0.0279 2.3353636,2.2814925 6.27e-4 0 1 0.003,0.0284 2.3353636,2.2814925 6.27e-4 0 1 0.003,0.0284 2.3353636,2.2814925 6.27e-4 0 1 0.003,0.0279 2.3353636,2.2814925 6.27e-4 0 1 0.002,0.0284 2.3353636,2.2814925 6.27e-4 0 1 0.002,0.0284 2.3353636,2.2814925 6.27e-4 0 1 0.002,0.0284 2.3353636,2.2814925 6.27e-4 0 1 0.001,0.0284 2.3353636,2.2814925 6.27e-4 0 1 5.1e-4,0.0284 2.3353636,2.2814925 6.27e-4 0 1 0,5.1e-4 2.3353636,2.2814925 6.27e-4 0 1 0,5.2e-4 2.3353636,2.2814925 6.27e-4 0 1 0,5.2e-4 2.3353636,2.2814925 6.27e-4 0 1 0,5.1e-4 2.3353636,2.2814925 6.27e-4 0 1 0,5.2e-4 2.3353636,2.2814925 6.27e-4 0 1 0,5.2e-4 2.3353636,2.2814925 6.27e-4 0 1 0,5.1e-4 2.3353636,2.2814925 6.27e-4 0 1 0,5.2e-4 2.3353636,2.2814925 6.27e-4 0 1 0,5.2e-4 2.3353636,2.2814925 6.27e-4 0 1 0,5.2e-4 2.3353636,2.2814925 6.27e-4 0 1 0,5.1e-4 2.3353636,2.2814925 6.27e-4 0 1 0,5.2e-4 2.3353636,2.2814925 6.27e-4 0 1 0,5.2e-4 2.3353636,2.2814925 6.27e-4 0 1 0,5.1e-4 2.3353636,2.2814925 6.27e-4 0 1 0,5.2e-4 2.3353636,2.2814925 6.27e-4 0 1 0,5.2e-4 2.3353636,2.2814925 6.27e-4 0 1 0,5.1e-4 2.3353636,2.2814925 6.27e-4 0 1 0,5.2e-4 2.3353636,2.2814925 6.27e-4 0 1 0,5.2e-4 2.3353636,2.2814925 6.27e-4 0 1 0,5.1e-4 2.3353636,2.2814925 6.27e-4 0 1 0,5.2e-4 2.3353636,2.2814925 6.27e-4 0 1 0,5.2e-4 2.3353636,2.2814925 6.27e-4 0 1 0,5.1e-4 2.3353636,2.2814925 6.27e-4 0 1 0,5.2e-4 2.3353636,2.2814925 6.27e-4 0 1 0,5.2e-4 2.3353636,2.2814925 6.27e-4 0 1 0,5.1e-4 2.3353636,2.2814925 6.27e-4 0 1 0,5.2e-4 2.3353636,2.2814925 6.27e-4 0 1 0,5.2e-4 2.3353636,2.2814925 6.27e-4 0 1 0,5.1e-4 2.3353636,2.2814925 6.27e-4 0 1 0,5.2e-4 2.3353636,2.2814925 6.27e-4 0 1 0,5.2e-4 2.3353636,2.2814925 6.27e-4 0 1 0,5.1e-4 2.3353636,2.2814925 6.27e-4 0 1 0,5.2e-4 2.3353636,2.2814925 6.27e-4 0 1 0,5.2e-4 2.3353636,2.2814925 6.27e-4 0 1 0,5.1e-4 2.3353636,2.2814925 6.27e-4 0 1 0,5.2e-4 2.3353636,2.2814925 6.27e-4 0 1 0,5.2e-4 2.3353636,2.2814925 6.27e-4 0 1 0,5.1e-4 2.3353636,2.2814925 6.27e-4 0 1 0,5.2e-4 2.3353636,2.2814925 6.27e-4 0 1 0,5.2e-4 2.3353636,2.2814925 6.27e-4 0 1 0,5.1e-4 2.3353636,2.2814925 6.27e-4 0 1 0,5.2e-4 2.3353636,2.2814925 6.27e-4 0 1 0,5.2e-4 2.3353636,2.2814925 6.27e-4 0 1 0,5.2e-4 2.3353636,2.2814925 6.27e-4 0 1 0,5.1e-4 2.3353636,2.2814925 6.27e-4 0 1 0,5.2e-4 2.3353636,2.2814925 6.27e-4 0 1 0,5.2e-4 2.3353636,2.2814925 6.27e-4 0 1 0,5.1e-4 2.3353636,2.2814925 6.27e-4 0 1 0,5.2e-4 2.3353636,2.2814925 6.27e-4 0 1 0,5.2e-4 2.3353636,2.2814925 6.27e-4 0 1 0,5.1e-4 2.3353636,2.2814925 6.27e-4 0 1 0,5.2e-4 2.3353636,2.2814925 6.27e-4 0 1 0,5.2e-4 2.3353636,2.2814925 6.27e-4 0 1 0,5.1e-4 2.3353636,2.2814925 6.27e-4 0 1 0,5.2e-4 2.3353636,2.2814925 6.27e-4 0 1 0,5.2e-4 2.3353636,2.2814925 6.27e-4 0 1 0,5.1e-4 2.3353636,2.2814925 6.27e-4 0 1 0,5.2e-4 2.3353636,2.2814925 6.27e-4 0 1 0,5.2e-4 2.3353636,2.2814925 6.27e-4 0 1 0,5.1e-4 2.3353636,2.2814925 6.27e-4 0 1 0,5.2e-4 2.3353636,2.2814925 6.27e-4 0 1 0,5.2e-4 2.3353636,2.2814925 6.27e-4 0 1 0,5.1e-4 2.3353636,2.2814925 6.27e-4 0 1 0,5.2e-4 2.3353636,2.2814925 6.27e-4 0 1 0,5.2e-4 2.3353636,2.2814925 6.27e-4 0 1 0,5.1e-4 2.3353636,2.2814925 6.27e-4 0 1 0,5.2e-4 2.3353636,2.2814925 6.27e-4 0 1 0,5.2e-4 2.3353636,2.2814925 6.27e-4 0 1 0,5.1e-4 2.3353636,2.2814925 6.27e-4 0 1 0,5.2e-4 2.3353636,2.2814925 6.27e-4 0 1 0,5.2e-4 2.3353636,2.2814925 6.27e-4 0 1 0,5.1e-4 2.3353636,2.2814925 6.27e-4 0 1 0,5.2e-4 2.3353636,2.2814925 6.27e-4 0 1 0,5.2e-4 2.3353636,2.2814925 6.27e-4 0 1 0,5.1e-4 2.3353636,2.2814925 6.27e-4 0 1 0,5.2e-4 2.3353636,2.2814925 6.27e-4 0 1 0,5.2e-4 2.3353636,2.2814925 6.27e-4 0 1 0,5.2e-4 2.3353636,2.2814925 6.27e-4 0 1 0,5.1e-4 2.3353636,2.2814925 6.27e-4 0 1 0,5.2e-4 2.3353636,2.2814925 6.27e-4 0 1 0,5.2e-4 2.3353636,2.2814925 6.27e-4 0 1 0,5.1e-4 2.3353636,2.2814925 6.27e-4 0 1 0,5.2e-4 2.3353636,2.2814925 6.27e-4 0 1 0,5.2e-4 2.3353636,2.2814925 6.27e-4 0 1 0,5.1e-4 2.3353636,2.2814925 6.27e-4 0 1 0,5.2e-4 2.3353636,2.2814925 6.27e-4 0 1 0,5.2e-4 2.3353636,2.2814925 6.27e-4 0 1 0,5.1e-4 2.3353636,2.2814925 6.27e-4 0 1 0,5.2e-4 2.3353636,2.2814925 6.27e-4 0 1 0,5.2e-4 2.3353636,2.2814925 6.27e-4 0 1 0,5.1e-4 2.3353636,2.2814925 6.27e-4 0 1 0,5.2e-4 2.3353636,2.2814925 6.27e-4 0 1 0,5.2e-4 2.3353636,2.2814925 6.27e-4 0 1 0,5.1e-4 2.3353636,2.2814925 6.27e-4 0 1 0,5.2e-4 2.3353636,2.2814925 6.27e-4 0 1 0,5.2e-4 2.3353636,2.2814925 6.27e-4 0 1 0,5.1e-4 2.3353636,2.2814925 6.27e-4 0 1 0,5.2e-4 2.3353636,2.2814925 6.27e-4 0 1 0,5.2e-4 2.3353636,2.2814925 6.27e-4 0 1 0,5.1e-4 2.3353636,2.2814925 6.27e-4 0 1 0,5.2e-4 2.3353636,2.2814925 6.27e-4 0 1 0,5.2e-4 2.3353636,2.2814925 6.27e-4 0 1 0,5.1e-4 2.3353636,2.2814925 6.27e-4 0 1 0,5.2e-4 2.3353636,2.2814925 6.27e-4 0 1 0,5.2e-4 2.3353636,2.2814925 6.27e-4 0 1 0,5.1e-4 2.3353636,2.2814925 6.27e-4 0 1 0,5.2e-4 2.3353636,2.2814925 6.27e-4 0 1 0,5.2e-4 2.3353636,2.2814925 6.27e-4 0 1 0,5.1e-4 2.3353636,2.2814925 6.27e-4 0 1 0,5.2e-4 2.3353636,2.2814925 6.27e-4 0 1 -5.1e-4,0.0284 2.3353636,2.2814925 6.27e-4 0 1 -0.001,0.0284 2.3353636,2.2814925 6.27e-4 0 1 -0.0496,0.39429 2.3353636,2.2814925 6.27e-4 0 1 -0.20412,0.5612 2.3353636,2.2814925 6.27e-4 0 1 -0.34571,0.49041 2.3353636,2.2814925 6.27e-4 0 1 -0.46354,0.38654 2.3353636,2.2814925 6.27e-4 0 1 -0.55036,0.25632 2.3353636,2.2814925 6.27e-4 0 1 -0.59944,0.10852 2.3353636,2.2814925 6.27e-4 0 1 -0.42582,-0.0336 l -0.003,5.1e-4 -0.002,0.0181 -4.54649,-0.71417 -6.4642,-1.01492 -35.905306,-5.63842 -0.363285,-0.0594 -5.17e-4,0.002 a 5.1503825,5.1503763 12.034796 0 0 -0.462504,-0.0548 5.1503825,5.1503763 12.034796 0 0 -1.461926,0.11059 5.1503825,5.1503763 12.034796 0 0 -1.370976,0.5178 5.1503825,5.1503763 12.034796 0 0 -1.169955,0.88367 5.1503825,5.1503763 12.034796 0 0 -0.49351,0.66456 5.1503825,5.1503763 12.034796 0 0 -0.380338,0.51263 5.1503825,5.1503763 12.034796 0 0 -0.506429,1.37562 5.1503825,5.1503763 12.034796 0 0 -0.08527,1.60869 5.1503825,5.1503763 12.034796 0 0 0.270784,1.01131 5.1503825,5.1503763 12.034796 0 0 0.145728,0.5457 5.1503825,5.1503763 12.034796 0 0 0.876432,1.35186 5.1503825,5.1503763 12.034796 0 0 1.25212,1.01492 5.1503825,5.1503763 12.034796 0 0 1.503267,0.57826 5.1503825,5.1503763 12.034796 0 0 5.17e-4,0 5.1503825,5.1503763 12.034796 0 0 10e-4,0 5.1503825,5.1503763 12.034796 0 0 0.544153,0.0853 l 47.038475,7.38042 a 8.1133839,6.2668076 0 0 1 -0.23462,1.34979 8.1133839,6.2668076 0 0 1 -0.63613,1.31465 8.1133839,6.2668076 0 0 1 -0.99942,1.17202 8.1133839,6.2668076 0 0 1 -1.31155,0.971 8.1133839,6.2668076 0 0 1 -1.55856,0.72089 8.1133839,6.2668076 0 0 1 -1.72703,0.43512 8.1133839,6.2668076 0 0 1 -1.80919,0.12764 h -3.24011 v -0.0517 H 92.931795 v 0.0517 H 88.51191 a 7.9390645,6.1321627 0 0 1 -1.766817,-0.15348 7.9390645,6.1321627 0 0 1 -1.677934,-0.45372 7.9390645,6.1321627 0 0 1 -1.504818,-0.73071 7.9390645,6.1321627 0 0 1 -1.257287,-0.971 7.9390645,6.1321627 0 0 1 -0.945679,-1.16272 7.9390645,6.1321627 0 0 1 -0.587561,-1.29604 7.9390645,6.1321627 0 0 1 -0.198954,-1.36426 h 23.81457 c 0.0981,0 0.19388,-0.0101 0.28628,-0.0289 0.0924,-0.0188 0.18132,-0.0464 0.26614,-0.0822 0.0848,-0.0358 0.16545,-0.0794 0.24081,-0.13023 0.0754,-0.0508 0.14578,-0.10909 0.20981,-0.17311 0.064,-0.064 0.12177,-0.13394 0.1726,-0.20929 0.0508,-0.0754 0.0945,-0.156 0.13022,-0.24082 0.0358,-0.0848 0.0633,-0.17373 0.0822,-0.26613 0.0188,-0.0924 0.0289,-0.18817 0.0289,-0.28629 0,-0.0981 -0.0101,-0.19388 -0.0289,-0.28628 -0.0188,-0.0924 -0.0464,-0.18132 -0.0822,-0.26614 -0.0358,-0.0848 -0.0794,-0.16545 -0.13022,-0.24081 -0.0508,-0.0754 -0.10858,-0.14578 -0.1726,-0.20981 -0.064,-0.064 -0.13445,-0.12177 -0.20981,-0.1726 -0.0754,-0.0508 -0.156,-0.0945 -0.24081,-0.13022 -0.0848,-0.0358 -0.17373,-0.0639 -0.26614,-0.0827 -0.0924,-0.0188 -0.18816,-0.0284 -0.28628,-0.0284 H 80.57286 v -2.53267 c 0,-0.0981 -0.01013,-0.19388 -0.02894,-0.28628 -0.01881,-0.0924 -0.04641,-0.18132 -0.08217,-0.26614 -0.03575,-0.0848 -0.0794,-0.16545 -0.130224,-0.24081 -0.05083,-0.0754 -0.10909,-0.14526 -0.173116,-0.20929 -0.06403,-0.064 -0.133934,-0.12229 -0.20929,-0.17312 -0.07536,-0.0508 -0.155997,-0.0945 -0.240812,-0.13022 -0.08482,-0.0358 -0.17373,-0.0634 -0.266134,-0.0822 -0.0924,-0.0188 -0.188167,-0.0289 -0.286287,-0.0289 -0.09812,0 -0.193884,0.0101 -0.286288,0.0289 -0.0924,0.0188 -0.181318,0.0464 -0.266133,0.0822 -0.08482,0.0357 -0.165456,0.0794 -0.240812,0.13022 -0.07536,0.0508 -0.14578,0.10909 -0.209807,0.17312 -0.06403,0.064 -0.121773,0.13393 -0.172599,0.20929 -0.05083,0.0754 -0.09447,0.156 -0.130225,0.24081 -0.03575,0.0848 -0.06387,0.17373 -0.08268,0.26614 -0.01881,0.0924 -0.02842,0.18816 -0.02842,0.28628 v 2.53267 2.83393 a 8.9457741,8.9457741 0 0 0 0.224276,1.99058 8.9457741,8.9457741 0 0 0 0.661458,1.89084 8.9457741,8.9457741 0 0 0 1.066085,1.69602 8.9457741,8.9457741 0 0 0 1.416451,1.41645 8.9457741,8.9457741 0 0 0 1.696021,1.06608 8.9457741,8.9457741 0 0 0 1.89084,0.66146 8.9457741,8.9457741 0 0 0 1.990576,0.22428 h 6.247164 v 2.15025 a 5.061017,5.061017 0 0 0 5.060673,5.06068 h 10.703743 a 5.0503324,5.0503324 0 0 0 5.05034,-5.05034 v -2.16059 h 5.02346 a 9.1421979,9.1421979 0 0 0 2.03864,-0.18604 9.1421979,9.1421979 0 0 0 1.94613,-0.63458 9.1421979,9.1421979 0 0 0 1.75648,-1.05214 9.1421979,9.1421979 0 0 0 1.47795,-1.41645 9.1421979,9.1421979 0 0 0 0.56172,-0.85369 9.1421979,9.1421979 0 0 0 0.56379,-0.85628 9.1421979,9.1421979 0 0 0 0.71727,-1.91771 9.1421979,9.1421979 0 0 0 0.20826,-1.55236 9.1421979,9.1421979 0 0 0 0.0641,-0.47646 v -1.20044 c 0,-0.0981 -0.0101,-0.19389 -0.0289,-0.28629 -0.0188,-0.0924 -0.0464,-0.18133 -0.0822,-0.26613 -0.0357,-0.0848 -0.0794,-0.16542 -0.13022,-0.24082 -0.0508,-0.0754 -0.10912,-0.14529 -0.17312,-0.20929 -0.064,-0.064 -0.13389,-0.12231 -0.20929,-0.17311 -0.0754,-0.0508 -0.15601,-0.0944 -0.24081,-0.13023 -0.0848,-0.0358 -0.17378,-0.0634 -0.26613,-0.0822 -0.0409,-0.008 -0.0825,-0.0149 -0.12455,-0.0196 l -43.946151,-6.89519 -4.531506,-0.71106 0.001,-0.008 a 2.3353636,2.2814925 6.27e-4 0 1 -0.104386,-0.008 2.3353636,2.2814925 6.27e-4 0 1 -0.574642,-0.19896 2.3353636,2.2814925 6.27e-4 0 1 -0.502295,-0.33796 2.3353636,2.2814925 6.27e-4 0 1 -0.395842,-0.4532 2.3353636,2.2814925 6.27e-4 0 1 -0.261999,-0.53744 2.3353636,2.2814925 6.27e-4 0 1 -0.110588,-0.58549 2.3353636,2.2814925 6.27e-4 0 1 0.04806,-0.59376 2.3353636,2.2814925 6.27e-4 0 1 0.476973,-0.96997 2.3353636,2.2814925 6.27e-4 0 1 0.879016,-0.64854 2.3353636,2.2814925 6.27e-4 0 1 1.085205,-0.18242 2.3353636,2.2814925 6.27e-4 0 1 0.189653,0.0258 l 10e-4,-0.005 4.557345,0.71572 6.238379,0.97979 25.526608,4.00854 11.01069,1.72909 0.002,-0.015 a 5.1503825,5.1503763 12.034796 0 0 0.43615,0.0579 5.1503825,5.1503763 12.034796 0 0 0.8077,-0.0207 5.1503825,5.1503763 12.034796 0 0 0.79479,-0.14676 5.1503825,5.1503763 12.034796 0 0 0.76222,-0.26923 5.1503825,5.1503763 12.034796 0 0 0.71055,-0.38551 5.1503825,5.1503763 12.034796 0 0 0.64131,-0.49144 5.1503825,5.1503763 12.034796 0 0 0.7028,-0.86662 5.1503825,5.1503763 12.034796 0 0 0.31161,-0.38499 5.1503825,5.1503763 12.034796 0 0 0.34881,-0.72915 5.1503825,5.1503763 12.034796 0 0 0.22996,-0.77463 5.1503825,5.1503763 12.034796 0 0 0.0884,-0.57051 5.1503825,5.1503763 12.034796 0 0 0.0243,-0.57722 5.1503825,5.1503763 12.034796 0 0 -0.0408,-0.5762 5.1503825,5.1503763 12.034796 0 0 -0.1049,-0.56792 5.1503825,5.1503763 12.034796 0 0 -0.0946,-0.31109 h 5.2e-4 a 5.1503825,5.1503763 12.034796 0 0 -0.0734,-0.24185 5.1503825,5.1503763 12.034796 0 0 -0.22841,-0.5302 5.1503825,5.1503763 12.034796 0 0 -0.28681,-0.50126 5.1503825,5.1503763 12.034796 0 0 -0.34054,-0.46664 5.1503825,5.1503763 12.034796 0 0 -0.39119,-0.42478 5.1503825,5.1503763 12.034796 0 0 -0.43615,-0.37879 5.1503825,5.1503763 12.034796 0 0 -0.47594,-0.32762 5.1503825,5.1503763 12.034796 0 0 -0.50902,-0.27182 5.1503825,5.1503763 12.034796 0 0 -0.53691,-0.21343 5.1503825,5.1503763 12.034796 0 0 -0.48473,-0.13229 h -5.2e-4 -5.1e-4 a 5.1503825,5.1503763 12.034796 0 0 -0.0718,-0.0196 5.1503825,5.1503763 12.034796 0 0 -0.47129,-0.0656 l -38.322207,-6.01256 -6.219259,-0.97565 z m 3.380156,1.97042 a 5.1503825,5.1503763 12.034796 0 1 -0.144694,0.10232 5.1503825,5.1503763 12.034796 0 1 -0.149862,0.0889 5.1503825,5.1503763 12.034796 0 0 0.294556,-0.1912 z m -1.44694,0.70435 a 5.1503825,5.1503763 12.034796 0 1 -0.170016,0.0527 5.1503825,5.1503763 12.034796 0 1 -0.171566,0.0388 5.1503825,5.1503763 12.034796 0 0 0.341582,-0.0915 z m 46.076775,0.55346 c -0.78497,0 -1.41697,0.63199 -1.41697,1.41696 v 1.23507 c 0,0.78497 0.632,1.41697 1.41697,1.41697 0.78497,0 1.41697,-0.632 1.41697,-1.41697 v -1.23507 c 0,-0.78497 -0.632,-1.41696 -1.41697,-1.41696 z m -47.538185,0.0713 c -0.784964,0 -1.416968,0.632 -1.416968,1.41697 v 1.23506 c 0,0.78497 0.632004,1.41646 1.416968,1.41646 0.784965,0 1.416968,-0.63149 1.416968,-1.41646 v -1.23506 c 0,-0.78497 -0.632003,-1.41697 -1.416968,-1.41697 z m 2.524394,13.69839 a 5.1503825,5.1503763 12.034796 0 1 -0.07131,0.0548 5.1503825,5.1503763 12.034796 0 1 -0.07958,0.0429 5.1503825,5.1503763 12.034796 0 0 0.150895,-0.0977 z m -1.457275,0.67903 a 5.1503825,5.1503763 12.034796 0 1 -0.0863,0.0305 5.1503825,5.1503763 12.034796 0 1 -0.09147,0.0171 5.1503825,5.1503763 12.034796 0 0 0.177767,-0.0475 z m -1.776119,0.18603 a 5.1503825,5.1503763 12.034796 0 0 0.176733,0.01 5.1503825,5.1503763 12.034796 0 1 -0.08888,0.002 5.1503825,5.1503763 12.034796 0 1 -0.08785,-0.0119 z m 48.247185,0.33228 c -0.78497,0 -1.41697,0.632 -1.41697,1.41697 v 1.23507 c 0,0.78497 0.632,1.41645 1.41697,1.41645 0.78497,0 1.41697,-0.63148 1.41697,-1.41645 v -1.23507 c 0,-0.78497 -0.632,-1.41697 -1.41697,-1.41697 z M 95.627755,215.7646 h 15.351005 v 2.98224 a 2.3743716,1.4324537 0 0 1 -2.37454,1.43248 H 98.002287 a 2.3743716,1.4324537 0 0 1 -2.374532,-1.43248 z" /><path
       id="path209"
       style="fill:#ffcf40;fill-opacity:1;fill-rule:evenodd;stroke-width:0.847079"
       d="m 102.72967,60.343571 a 52.5,52.215991 0 0 0 -52.353389,52.212339 52.5,52.215991 0 0 0 7.434688,26.69087 c 1.454069,4.27272 13.697519,16.95158 23.32054,27.85153 l 21.551651,0.046 0.0465,-2.3828 0.0465,2.3828 21.55166,-0.046 c 9.62303,-10.89995 21.86647,-23.57881 23.32054,-27.85153 a 52.5,52.215991 0 0 0 7.43468,-26.69087 52.5,52.215991 0 0 0 -52.35339,-52.212339 z" /><path
       id="path216"
       style="fill:#ffffff;fill-opacity:1;fill-rule:evenodd;stroke-width:0.264583"
       d="m 93.863119,64.886445 c -2.54808,0.74808 -4.85054,1.61734 -7.02396,2.58713 -0.39792,0.17756 -1.73163,1.09269 -1.20967,2.18819 0.42024,0.88201 1.1358,0.92686 1.75444,0.67912 1.5239,-0.7044 3.98598,-1.76881 7.27759,-2.73527 1.44542,-0.37927 2.906236,-0.69718 4.378527,-0.95291 1.508804,-0.70652 1.485454,-2.5673 -0.754454,-2.6509 -1.488376,0.11187 -2.974953,0.51683 -4.422473,0.88464 z m -12.19099,5.2312 c -0.76108,0.4398 -1.5153,0.89079 -2.25516,1.36633 -2.2353,1.43648 -4.36515,3.03079 -6.37325,4.77077 -2.00801,1.73995 -3.88917,3.62111 -5.62912,5.62911 -1.73998,2.008114 -3.33429,4.137954 -4.77077,6.373256 -1.4365,2.235243 -2.7115,4.570244 -3.81527,6.987171 -1.10366,2.41692 -2.03327,4.909588 -2.78174,7.458968 -0.74863,2.54935 -1.3142,5.14892 -1.6924,7.77886 -0.18229,1.30843 0.50427,1.96171 1.08825,2.15718 0.89903,0.30093 1.58379,-0.93197 1.71674,-1.75411 0.35889,-2.49627 0.89563,-4.96373 1.60611,-7.38352 0.71052,-2.41993 1.59298,-4.786018 2.64066,-7.080188 1.04769,-2.294301 2.25793,-4.510836 3.62149,-6.632672 1.36368,-2.121679 2.87717,-4.143237 4.52892,-6.049243 1.65145,-1.906042 3.43694,-3.691712 5.34283,-5.343342 1.90618,-1.65159 3.92792,-3.16492 6.04976,-4.52841 0.7723,-0.49634 1.56141,-0.96479 2.35799,-1.42007 0.82477,-0.56506 1.23253,-1.29328 0.62219,-2.2313 -0.27249,-0.4188 -1.15617,-0.67499 -2.25723,-0.0988 z"
       sodipodi:nodetypes="csscccsccscccccscscccccccscc" /></g></svg>
