<?xml version="1.0" encoding="UTF-8" standalone="no"?>
<!-- Created with Inkscape (http://www.inkscape.org/) -->

<svg
   width="180.93929mm"
   height="38.799484mm"
   viewBox="0 0 180.93929 38.799485"
   version="1.1"
   id="svg1"
   inkscape:version="1.3 (0e150ed, 2023-07-21)"
   sodipodi:docname="nine2fire-logo-text-dark-mode.svg"
   xmlns:inkscape="http://www.inkscape.org/namespaces/inkscape"
   xmlns:sodipodi="http://sodipodi.sourceforge.net/DTD/sodipodi-0.dtd"
   xmlns="http://www.w3.org/2000/svg"
   xmlns:svg="http://www.w3.org/2000/svg">
  <sodipodi:namedview
     id="namedview1"
     pagecolor="#000000"
     bordercolor="#000000"
     borderopacity="0.25"
     inkscape:showpageshadow="2"
     inkscape:pageopacity="0.0"
     inkscape:pagecheckerboard="0"
     inkscape:deskcolor="#d1d1d1"
     inkscape:document-units="mm"
     inkscape:zoom="0.99842118"
     inkscape:cx="506.80015"
     inkscape:cy="22.53558"
     inkscape:window-width="2560"
     inkscape:window-height="1412"
     inkscape:window-x="0"
     inkscape:window-y="28"
     inkscape:window-maximized="0"
     inkscape:current-layer="g3"
     showgrid="false"
     showguides="true">
    <inkscape:grid
       id="grid12"
       units="mm"
       originx="-44.839914"
       originy="-56.361292"
       spacingx="1.0000001"
       spacingy="1"
       empcolor="#0099e5"
       empopacity="0.30196078"
       color="#0099e5"
       opacity="0.14901961"
       empspacing="5"
       dotted="false"
       gridanglex="30"
       gridanglez="30"
       visible="false" />
  </sodipodi:namedview>
  <defs
     id="defs1">
    <rect
       x="291.49472"
       y="75.258636"
       width="456.62689"
       height="73.138672"
       id="rect8" />
    <rect
       x="291.49472"
       y="75.258636"
       width="456.62689"
       height="73.138672"
       id="rect4" />
    <rect
       x="291.49472"
       y="75.258636"
       width="456.62689"
       height="73.138672"
       id="rect12" />
    <rect
       x="291.49472"
       y="75.258636"
       width="456.62689"
       height="73.138672"
       id="rect16" />
  </defs>
  <g
     inkscape:label="Layer 1"
     inkscape:groupmode="layer"
     id="layer1"
     transform="translate(-24.875171,-135.91213)">
    <g
       id="g3"
       transform="translate(1.4947811,-107.69405)">
      <path
         id="path26"
         style="fill:#e6f2ea;fill-opacity:1;stroke:none;stroke-width:0.119822;stroke-linecap:round;stroke-linejoin:round;stroke-miterlimit:30"
         d="m 35.718972,243.60634 c -0.228655,0.006 -0.45918,0.1509 -0.637593,0.43126 l -11.426387,17.95617 c -0.356827,0.56073 -0.367261,1.44743 -0.02334,1.98787 l 11.473052,18.02908 c 0.343917,0.54044 0.908159,0.52428 1.264979,-0.0365 l 2.669587,-4.19484 -0.942726,-1.48153 -1.822371,2.86389 c -0.303919,0.47759 -0.784318,0.49095 -1.07724,0.0306 l -9.771706,-15.35548 c -0.292928,-0.4603 -0.284265,-1.21538 0.01969,-1.69297 l 9.732336,-15.29387 c 0.303926,-0.47758 0.784325,-0.49095 1.077232,-0.0306 l 4.654549,7.31393 1.306178,2.05277 0.521668,-0.81987 c 6.28e-4,-7.1e-4 0.0012,-0.002 0.0018,-0.003 0.211598,-0.32977 0.531072,-0.37163 0.75972,-0.12359 l -0.340489,-0.53479 -0.838095,-1.31711 -5.973481,-9.38674 c -0.171958,-0.27022 -0.39873,-0.40143 -0.627386,-0.39481 z" />
      <path
         style="fill:#ffcf40;fill-opacity:1;stroke:none;stroke-width:0.0935954;stroke-linecap:round;stroke-linejoin:round;stroke-miterlimit:30"
         d="m 43.682543,282.1428 -7.632929,-11.99458 c -0.228811,-0.35956 -0.222003,-0.94943 0.01545,-1.32248 l 7.602017,-11.94602 c 0.237396,-0.37306 0.612776,-0.38377 0.84158,-0.0242 l 7.632929,11.99458 c 0.228797,0.35955 0.221982,0.94942 -0.01545,1.32247 l -7.602024,11.94604 c -0.237389,0.37304 -0.612762,0.38375 -0.841566,0.0242 z"
         id="path27" />
      <text
         xml:space="preserve"
         transform="matrix(0.33874674,0,0,0.33874674,-39.32989,227.11087)"
         id="text8"
         style="font-style:normal;font-variant:normal;font-weight:500;font-stretch:normal;font-size:74.9823px;line-height:1;font-family:Montserrat;-inkscape-font-specification:'Montserrat, Medium';font-variant-ligatures:none;font-variant-caps:normal;font-variant-numeric:normal;font-variant-east-asian:normal;letter-spacing:7.81065px;white-space:pre;shape-inside:url(#rect8);display:inline;fill:#e6f2ea;fill-opacity:1"><tspan
           x="291.49414"
           y="134.80077"
           id="tspan4"><tspan
             style="letter-spacing:7.02959px"
             id="tspan1">Nin</tspan><tspan
             dx="-4.6864128"
             style="letter-spacing:11.716px"
             id="tspan2">e2</tspan><tspan
             dx="4.6864133"
             style="letter-spacing:7.02959px;word-spacing:-0.781065px"
             id="tspan3">Fire</tspan></tspan></text>
    </g>
  </g>
</svg>
