<?xml version="1.0" encoding="UTF-8" standalone="no"?>
<!-- Created with Inkscape (http://www.inkscape.org/) -->

<svg
   width="183.97745mm"
   height="55.00016mm"
   viewBox="0 0 183.97745 55.00016"
   version="1.1"
   id="svg1"
   inkscape:version="1.3 (0e150ed, 2023-07-21)"
   sodipodi:docname="nine2fire-logo-black.svg"
   xmlns:inkscape="http://www.inkscape.org/namespaces/inkscape"
   xmlns:sodipodi="http://sodipodi.sourceforge.net/DTD/sodipodi-0.dtd"
   xmlns="http://www.w3.org/2000/svg"
   xmlns:svg="http://www.w3.org/2000/svg">
  <sodipodi:namedview
     id="namedview1"
     pagecolor="#ffffff"
     bordercolor="#000000"
     borderopacity="0.25"
     inkscape:showpageshadow="2"
     inkscape:pageopacity="0.0"
     inkscape:pagecheckerboard="0"
     inkscape:deskcolor="#d1d1d1"
     inkscape:document-units="mm"
     inkscape:zoom="0.53924603"
     inkscape:cx="346.78048"
     inkscape:cy="102.92148"
     inkscape:window-width="2560"
     inkscape:window-height="1412"
     inkscape:window-x="0"
     inkscape:window-y="28"
     inkscape:window-maximized="0"
     inkscape:current-layer="layer1" />
  <defs
     id="defs1">
    <rect
       x="291.49472"
       y="75.258636"
       width="456.62689"
       height="73.138672"
       id="rect7" />
  </defs>
  <g
     inkscape:label="Layer 1"
     inkscape:groupmode="layer"
     id="layer1"
     transform="translate(-13.011277,-120.99992)">
    <g
       id="g2"
       transform="translate(1.4947816,-36.176642)">
      <path
         id="path11"
         style="fill:#28282b;fill-opacity:1;stroke-width:0.169854;stroke-linecap:round;stroke-linejoin:round;stroke-miterlimit:30"
         d="m 29.007038,157.17678 c -0.32413,0.009 -0.65091,0.21391 -0.90382,0.61133 l -16.19746,25.45375 c -0.50582,0.79486 -0.52061,2.0518 -0.03308,2.81791 l 16.26361,25.5571 c 0.48752,0.7661 1.28736,0.74318 1.79317,-0.0517 l 3.78427,-5.9464 -1.33636,-2.10013 -2.5833,4.0597 c -0.43082,0.677 -1.11181,0.69594 -1.52704,0.0434 L 14.415158,185.8546 c -0.41524,-0.6525 -0.40296,-1.72286 0.02791,-2.39986 l 13.79606,-21.67981 c 0.43083,-0.677 1.11182,-0.69595 1.52703,-0.0434 l 6.59805,10.36785 1.85157,2.9099 0.73949,-1.16221 c 8.9e-4,-0.001 0.0017,-0.003 0.0026,-0.004 0.29995,-0.46746 0.75282,-0.5268 1.07694,-0.17519 l -0.48266,-0.75809 -1.18804,-1.86707 -8.4677,-13.30616 c -0.24376,-0.38305 -0.56522,-0.56905 -0.88935,-0.55966 z" />
      <path
         style="fill:#28282b;fill-opacity:1;stroke-width:0.132676;stroke-linecap:round;stroke-linejoin:round;stroke-miterlimit:30"
         d="m 40.295788,211.8041 -10.82005,-17.00291 c -0.32435,-0.50969 -0.3147,-1.34586 0.0219,-1.87468 l 10.77623,-16.93407 c 0.33652,-0.52882 0.86864,-0.544 1.19298,-0.0343 l 10.82005,17.0029 c 0.32433,0.50969 0.31467,1.34586 -0.0219,1.87467 l -10.77624,16.93409 c -0.33651,0.52881 -0.86862,0.54399 -1.19296,0.0343 z"
         id="path10" />
      <text
         xml:space="preserve"
         transform="matrix(0.33874674,0,0,0.33874674,-39.329891,155.59342)"
         id="text7"
         style="font-style:normal;font-variant:normal;font-weight:normal;font-stretch:normal;font-size:74.9823px;line-height:1;font-family:Manrope;-inkscape-font-specification:'Manrope, @wght=600';font-variant-ligatures:none;font-variant-caps:normal;font-variant-numeric:normal;font-variant-east-asian:normal;font-variation-settings:'wght' 600;letter-spacing:7.81065px;white-space:pre;shape-inside:url(#rect7);display:inline"><tspan
           x="291.49414"
           y="133.77255"
           id="tspan8"><tspan
             style="letter-spacing:7.02959px"
             id="tspan5">Nin</tspan><tspan
             dx="-4.6864052"
             style="letter-spacing:11.716px"
             id="tspan6">e2</tspan><tspan
             dx="4.6864133"
             style="letter-spacing:7.02959px"
             id="tspan7">Fire</tspan></tspan></text>
    </g>
  </g>
</svg>
