<?xml version="1.0" encoding="UTF-8" standalone="no"?>
<!-- Created with Inkscape (http://www.inkscape.org/) -->

<svg
   width="41.007427mm"
   height="55.00013mm"
   viewBox="0 0 41.007428 55.00013"
   version="1.1"
   id="svg1"
   inkscape:version="1.3 (0e150ed, 2023-07-21)"
   sodipodi:docname="nine2fire-logo-light-mode.svg"
   xmlns:inkscape="http://www.inkscape.org/namespaces/inkscape"
   xmlns:sodipodi="http://sodipodi.sourceforge.net/DTD/sodipodi-0.dtd"
   xmlns="http://www.w3.org/2000/svg"
   xmlns:svg="http://www.w3.org/2000/svg">
  <sodipodi:namedview
     id="namedview1"
     pagecolor="#ffffff"
     bordercolor="#000000"
     borderopacity="0.25"
     inkscape:showpageshadow="2"
     inkscape:pageopacity="0.0"
     inkscape:pagecheckerboard="0"
     inkscape:deskcolor="#d1d1d1"
     inkscape:document-units="mm"
     inkscape:zoom="0.53924603"
     inkscape:cx="346.78048"
     inkscape:cy="102.92148"
     inkscape:window-width="2560"
     inkscape:window-height="1440"
     inkscape:window-x="0"
     inkscape:window-y="0"
     inkscape:window-maximized="0"
     inkscape:current-layer="layer1" />
  <defs
     id="defs1">
    <rect
       x="291.49472"
       y="75.258636"
       width="456.62689"
       height="73.138672"
       id="rect3" />
  </defs>
  <g
     inkscape:label="Layer 1"
     inkscape:groupmode="layer"
     id="layer1"
     transform="translate(-13.011277,-120.99994)">
    <path
       id="path16"
       style="fill:#28282b;fill-opacity:1;stroke-width:0.169854;stroke-linecap:round;stroke-linejoin:round;stroke-miterlimit:30"
       d="m 30.501827,121.00014 c -0.32413,0.009 -0.65091,0.21391 -0.90382,0.61133 L 13.40054,147.06521 c -0.50582,0.79486 -0.52061,2.0518 -0.03308,2.81791 l 16.263617,25.5571 c 0.48752,0.7661 1.28736,0.74318 1.79317,-0.0517 l 3.78426,-5.94641 -1.33636,-2.10013 -2.58329,4.05971 c -0.43082,0.677 -1.11181,0.69594 -1.52704,0.0434 L 15.90994,149.67797 c -0.41524,-0.6525 -0.40296,-1.72286 0.02791,-2.39986 l 13.796067,-21.6798 c 0.43083,-0.677 1.11182,-0.69595 1.52703,-0.0434 l 6.59804,10.36784 1.85157,2.9099 0.73949,-1.16221 c 8.9e-4,-0.001 0.002,-0.003 0.003,-0.004 0.29995,-0.46746 0.75282,-0.5268 1.07694,-0.17519 l -0.48266,-0.75809 -1.18804,-1.86707 -8.46769,-13.30615 c -0.24376,-0.38305 -0.56522,-0.56905 -0.88935,-0.55966 z" />
    <path
       style="fill:#ffcf40;fill-opacity:1;stroke-width:0.132676;stroke-linecap:round;stroke-linejoin:round;stroke-miterlimit:30"
       d="m 41.790567,175.62745 -10.82004,-17.00291 c -0.32435,-0.50969 -0.3147,-1.34586 0.0219,-1.87468 l 10.77622,-16.93407 c 0.33652,-0.52882 0.86864,-0.544 1.19298,-0.0343 l 10.82005,17.0029 c 0.32433,0.50969 0.31467,1.34586 -0.0219,1.87467 l -10.77624,16.9341 c -0.33651,0.52881 -0.86862,0.54398 -1.19296,0.0343 z"
       id="path17" />
    <path
       id="path34"
       style="fill:#28282b;fill-opacity:1;stroke-width:0.169854;stroke-linecap:round;stroke-linejoin:round;stroke-miterlimit:30"
       d="m 30.501827,121.00014 c -0.32413,0.009 -0.65091,0.21391 -0.90382,0.61133 L 13.40054,147.06521 c -0.50582,0.79486 -0.52061,2.0518 -0.03308,2.81791 l 16.263617,25.5571 c 0.48752,0.7661 1.28736,0.74318 1.79317,-0.0517 l 3.78426,-5.94641 -1.33636,-2.10013 -2.58329,4.05971 c -0.43082,0.677 -1.11181,0.69594 -1.52704,0.0434 L 15.90994,149.67797 c -0.41524,-0.6525 -0.40296,-1.72286 0.02791,-2.39986 l 13.796067,-21.6798 c 0.43083,-0.677 1.11182,-0.69595 1.52703,-0.0434 l 6.59804,10.36784 1.85157,2.9099 0.73949,-1.16221 c 8.9e-4,-0.001 0.002,-0.003 0.003,-0.004 0.29995,-0.46746 0.75282,-0.5268 1.07694,-0.17519 l -0.48266,-0.75809 -1.18804,-1.86707 -8.46769,-13.30615 c -0.24376,-0.38305 -0.56522,-0.56905 -0.88935,-0.55966 z" />
    <path
       style="fill:#ffcf40;fill-opacity:1;stroke-width:0.132676;stroke-linecap:round;stroke-linejoin:round;stroke-miterlimit:30"
       d="m 41.790567,175.62745 -10.82004,-17.00291 c -0.32435,-0.50969 -0.3147,-1.34586 0.0219,-1.87468 l 10.77622,-16.93407 c 0.33652,-0.52882 0.86864,-0.544 1.19298,-0.0343 l 10.82005,17.0029 c 0.32433,0.50969 0.31467,1.34586 -0.0219,1.87467 l -10.77624,16.9341 c -0.33651,0.52881 -0.86862,0.54398 -1.19296,0.0343 z"
       id="path35" />
  </g>
</svg>
