<?xml version="1.0" encoding="UTF-8" standalone="no"?>
<!-- Created with Inkscape (http://www.inkscape.org/) -->

<svg
   width="998.88666"
   height="1616.4836"
   viewBox="0 0 264.28876 427.69463"
   version="1.1"
   id="svg1"
   xml:space="preserve"
   inkscape:version="1.3 (0e150ed, 2023-07-21)"
   sodipodi:docname="topographic-pattern-light-theme.svg"
   xmlns:inkscape="http://www.inkscape.org/namespaces/inkscape"
   xmlns:sodipodi="http://sodipodi.sourceforge.net/DTD/sodipodi-0.dtd"
   xmlns="http://www.w3.org/2000/svg"
   xmlns:svg="http://www.w3.org/2000/svg"><sodipodi:namedview
     id="namedview1"
     pagecolor="#ffffff"
     bordercolor="#000000"
     borderopacity="0.25"
     inkscape:showpageshadow="2"
     inkscape:pageopacity="0.0"
     inkscape:pagecheckerboard="0"
     inkscape:deskcolor="#d1d1d1"
     inkscape:document-units="mm"
     showguides="true"
     inkscape:zoom="0.10029958"
     inkscape:cx="2662.0251"
     inkscape:cy="1311.0723"
     inkscape:window-width="2560"
     inkscape:window-height="1412"
     inkscape:window-x="0"
     inkscape:window-y="28"
     inkscape:window-maximized="0"
     inkscape:current-layer="layer1" /><defs
     id="defs1"><clipPath
       clipPathUnits="userSpaceOnUse"
       id="clipPath134"><path
         id="path135"
         style="opacity:1;fill:none;stroke:#000000;stroke-width:0.294582"
         d="m -328.52672,-52.558556 h 262.628029 c 0.46002,0 0.830363,0.331462 0.830363,0.743186 V 374.3929 c 0,0.41172 -0.370343,0.74319 -0.830363,0.74319 H -328.52672 c -0.46003,0 -0.83037,-0.33147 -0.83037,-0.74319 V -51.81537 c 0,-0.411724 0.37034,-0.743186 0.83037,-0.743186 z" /></clipPath></defs><g
     inkscape:label="Layer 1"
     inkscape:groupmode="layer"
     id="layer1"
     transform="translate(461.35774,110.26173)"><g
       id="g134"
       clip-path="url(#clipPath134)"
       transform="translate(-132.00065,-57.703173)"><path
         style="opacity:1;fill:none;stroke:#000000;stroke-width:0.3;stroke-opacity:1"
         d="m -323.07204,-55.369266 c 15.56627,1.982131 30.78405,5.00972 45.71775,8.889563 9.52937,3.179082 34.50496,9.522135 40.384,-8.889563"
         id="path110"
         sodipodi:nodetypes="ccc" /><path
         style="opacity:1;fill:none;stroke:#000000;stroke-width:0.3;stroke-opacity:1"
         d="m -93.375968,-55.878534 c -1.611146,3.320297 -6.774612,9.18443 -13.594832,8.74525 -18.12614,-1.167211 -35.21795,5.476555 -19.73622,23.850562 7.29002,6.916607 21.00796,3.18758 26.46878,-5.881949 8.626301,-10.741779 20.195144,-15.30616 32.350724,-21.076991 2.166942,-1.173968 3.715793,-2.775846 4.752446,-4.732322"
         id="path111"
         sodipodi:nodetypes="cscccc" /><path
         style="opacity:1;fill:none;stroke:#000000;stroke-width:0.3;stroke-opacity:1"
         d="m -63.489635,-40.076037 c -42.989685,15.98654 -35.524407,66.444922 0.287284,78.715657"
         id="path112"
         sodipodi:nodetypes="cc" /><path
         style="opacity:1;fill:none;stroke:#000000;stroke-width:0.3;stroke-opacity:1"
         d="m -63.202351,-15.082379 c -21.320009,5.8026067 -14.861356,31.490374 0,36.054068"
         id="path113"
         sodipodi:nodetypes="cc" /><path
         style="opacity:1;fill:none;stroke:#000000;stroke-width:0.3;stroke-opacity:1"
         d="m -126.53424,-56.311051 c -10.0258,6.703128 -14.589,17.251801 -12.19374,29.233883 3.60886,12.337752 18.21345,11.901495 24.33926,21.9981319 13.30326,20.1447471 15.489389,56.0401521 51.232012,60.2859491"
         id="path114"
         sodipodi:nodetypes="cccc" /><path
         style="opacity:1;fill:none;stroke:#000000;stroke-width:0.3;stroke-opacity:1"
         d="m -166.32995,-55.947346 c 1.44423,39.476309 32.3004,30.182551 48.68931,68.346488 8.70549,15.471603 0.7946,62.393139 34.645764,58.556083 9.086884,-1.030005 20.862259,-3.464761 20.394333,-1.096648"
         id="path115"
         sodipodi:nodetypes="ccsc" /><path
         style="opacity:1;fill:none;stroke:#000000;stroke-width:0.3;stroke-opacity:1"
         d="m -192.10034,-55.339763 c 1.99698,19.211555 10.515,30.614975 22.24794,42.671803 12.96487,13.32276365 26.73278,17.0072931 32.25654,30.57086 22.15827,54.409579 7.87645,59.510342 75.240607,73.701785"
         id="path116"
         sodipodi:nodetypes="cssc" /><path
         style="opacity:1;fill:none;stroke:#000000;stroke-width:0.3;stroke-opacity:1"
         d="m -230.52127,-56.39269 c 2.33044,23.230012 22.24178,40.16802 39.91172,54.1885881 8.31093,6.5944702 17.18778,9.946972 23.79911,15.1184589 20.95133,15.980544 14.73945,52.103621 31.23457,71.258021 22.22014,28.263272 44.174211,5.484392 75.73935,29.904442"
         id="path117"
         sodipodi:nodetypes="csccc" /><path
         style="opacity:1;fill:none;stroke:#000000;stroke-width:0.3;stroke-opacity:1"
         d="m -62.454773,137.47667 c -41.854917,-55.485624 -88.400557,0.38965 -94.443807,-49.887658 -5.08448,-71.736516 -23.51455,-52.056073 -37.32053,-78.4492891 -19.65751,-40.4554379 -43.11563,-28.4319389 -75.78355,-49.8876539 -14.57346,-8.651597 -44.20682,10.077466 -65.88215,10.282187"
         id="path118"
         sodipodi:nodetypes="ccccc" /><path
         style="opacity:1;fill:none;stroke:#000000;stroke-width:0.3;stroke-opacity:1"
         d="m -336.10597,182.41649 c 17.48522,5.58007 36.09071,7.58926 61.76306,-12.92715 12.87871,-12.48016 24.0308,-25.86907 46.32229,-33.39514 21.05969,-4.25099 38.0215,-3.19883 50.27227,3.94996 38.56091,23.61825 57.74503,-43.13821 115.626198,13.28624 l 7.181752,0.35909"
         id="path119"
         sodipodi:nodetypes="cccccc" /><path
         style="opacity:1;fill:none;stroke:#000000;stroke-width:0.3;stroke-opacity:1"
         d="m -338.9322,170.40499 c 38.14689,12.17384 80.84301,-73.326768 111.26486,-70.34529 62.09497,5.69607 68.64327,-19.74096 19.2912,-59.866409 -9.25911,-7.52807 -14.81594,-25.627058 -23.23459,-37.3567841 -8.29662,-11.5597018 -23.03046,-17.5613309 -36.01743,-23.9723859 -20.20523,-9.974367 -36.21937,-5.791309 -47.88258,2.197323 -5.3482,3.663211 -12.59478,3.980531 -19.52554,5.247554"
         id="path120"
         sodipodi:nodetypes="ccssssc" /><path
         style="opacity:1;fill:none;stroke:#000000;stroke-width:0.3;stroke-opacity:1"
         d="m -336.42421,3.4233731 c 20.9887,2.6263025 27.10988,-9.4211931 47.77311,-11.9699287 7.80563,-0.9627969 22.45728,3.4964074 34.38785,14.7708702 12.94301,14.3336904 -8.33612,25.9855444 3.70014,39.9526754 3.53542,3.429129 14.45463,21.376752 -4.31812,35.435225 -9.05692,5.403555 -21.25917,1.745771 -28.56427,25.268395 -3.45343,16.7899 -12.12328,53.20275 -53.51878,54.14657"
         id="path121"
         sodipodi:nodetypes="csccccc" /><path
         style="opacity:1;fill:none;stroke:#000000;stroke-width:0.3;stroke-opacity:1"
         d="m -337.30927,26.133871 c 26.97494,-11.803035 53.04715,-14.342733 58.34539,-8.103526 21.78713,26.319853 -33.21537,26.591122 -43.75904,88.328435 -2.42766,15.38955 -7.37408,21.78353 -13.57342,23.70281"
         id="path122"
         sodipodi:nodetypes="cccc" /><path
         style="opacity:1;fill:none;stroke:#000000;stroke-width:0.3;stroke-opacity:1"
         d="m -338.45802,196.52878 c 17.48522,5.58007 40.01079,12.68536 65.68314,-7.83105 30.73307,-19.66836 57.71163,-49.44256 96.59456,-29.44518 81.64619,33.33342 101.467766,27.53425 122.807952,13.64533"
         id="path123"
         sodipodi:nodetypes="cccc" /><path
         style="opacity:1;fill:none;stroke:#000000;stroke-width:0.3;stroke-opacity:1"
         d="M -57.448823,160.33619 -69.7774,159.93921 c -23.259986,-1.13007 -24.113289,-16.37003 -40.35602,-11.01075 -16.74105,5.90192 -4.9369,22.33343 9.99011,18.64518 9.004724,-2.92359 16.323861,-4.62852 24.485791,-0.18628 4.468382,1.74868 9.489216,5.9834 12.93626,3.13606"
         id="path124"
         sodipodi:nodetypes="ccsccc" /><path
         style="opacity:1;fill:none;stroke:#000000;stroke-width:0.3;stroke-opacity:1"
         d="m -337.54976,214.69388 c 17.48522,5.58007 55.45113,16.92388 81.12348,-3.59253 30.73307,-19.66836 32.58323,-61.24987 71.46616,-41.25249 81.64619,33.33342 123.568642,79.60754 144.908828,65.71862"
         id="path125"
         sodipodi:nodetypes="cccc" /><path
         style="opacity:1;fill:none;stroke:#000000;stroke-width:0.3;stroke-opacity:1"
         d="m -338.78796,225.52815 c 17.48522,5.58007 68.14271,22.49579 93.81506,1.97938 30.73307,-19.66836 47.75121,-59.70212 86.63414,-39.70474 83.813039,42.31039 95.70908,72.48788 117.049266,58.59896"
         id="path126"
         sodipodi:nodetypes="cccc" /><path
         style="opacity:1;fill:none;stroke:#000000;stroke-width:0.3;stroke-opacity:1"
         d="m -337.85931,236.05287 c 17.48522,5.58007 46.47417,35.80647 72.14652,15.29006 30.73307,-19.66836 69.41975,-73.0128 108.30268,-53.01542 91.363966,42.31039 97.444549,105.30024 118.28747,91.41132"
         id="path127"
         sodipodi:nodetypes="cccc" /><path
         style="opacity:1;fill:none;stroke:#000000;stroke-width:0.3;stroke-opacity:1"
         d="m -339.71661,280.31861 c 17.48522,5.58007 45.85507,6.08961 71.52742,-14.4268 11.16559,-11.4889 28.02501,-23.74352 46.14869,-22.31669 14.49684,1.1413 32.00944,-2.13513 42.65852,-12.09016 22.11863,-20.67704 42.33545,-7.47566 57.26064,3.98863 79.601042,63.35983 60.298475,112.4199 81.141396,98.53098"
         id="path128"
         sodipodi:nodetypes="ccsscc" /><path
         style="opacity:1;fill:none;stroke:#000000;stroke-width:0.3;stroke-opacity:1"
         d="m -178.93843,208.63138 c -46.59818,7.39285 -48.81165,25.75393 -17.0071,17.34056 21.50272,-4.59034 22.58006,-10.97665 28.46352,-15.85029 4.22071,-3.49628 -4.81329,-2.5442 -11.45642,-1.49027 z"
         id="path129"
         sodipodi:nodetypes="scss" /><path
         style="opacity:1;fill:none;stroke:#000000;stroke-width:0.3;stroke-opacity:1"
         d="m -337.41016,292.52531 c 109.09943,34.70644 134.4286,-68.01416 187.58766,-32.5028 22.7739,18.47444 35.03533,18.26006 51.075855,24.76406 23.981074,9.67153 34.716368,25.90884 36.836523,37.14607"
         id="path130"
         sodipodi:nodetypes="cccc" /><path
         style="opacity:1;fill:none;stroke:#000000;stroke-width:0.3;stroke-opacity:1"
         d="m -60.008056,325.97598 c -40.606164,5.72075 -65.027674,-38.8286 -92.809064,-54.92263 -26.84284,-10.72901 -87.63429,34.0235 -120.01611,44.24322 -11.57158,2.66656 -38.79481,5.07897 -67.12767,-4.3226"
         id="path131"
         sodipodi:nodetypes="cccc" /><path
         style="opacity:1;fill:none;stroke:#000000;stroke-width:0.3;stroke-opacity:1"
         d="m -59.100198,343.67921 c -40.606164,5.72075 -65.027672,-38.8286 -92.809062,-54.92263 -26.84284,-10.72901 -87.63429,34.0235 -120.01611,44.24322 -11.57158,2.66656 -38.79481,5.07897 -67.12767,-4.3226"
         id="path132"
         sodipodi:nodetypes="cccc" /><path
         style="opacity:1;fill:none;stroke:#000000;stroke-width:0.3;stroke-opacity:1"
         d="m -57.738411,367.73744 c -40.606164,5.72075 -65.027669,-38.8286 -92.809059,-54.92263 -37.48635,-25.46618 -63.13331,15.9207 -90.96466,32.44107 -11.57158,2.66656 -67.84626,16.88112 -96.17912,7.47955"
         id="path133"
         sodipodi:nodetypes="cccc" /><path
         style="opacity:1;fill:none;stroke:#000000;stroke-width:0.3;stroke-opacity:1"
         d="m -58.184838,389.97996 c -40.606164,5.72075 -65.027722,-38.8286 -92.809112,-54.92263 -26.84284,-10.72901 -87.63429,34.0235 -120.01611,44.24322 -11.57158,2.66656 -38.79481,5.07897 -67.12767,-4.3226"
         id="path134"
         sodipodi:nodetypes="cccc" /></g></g></svg>
